<?xml version="1.0" encoding="utf-8"?>
<!-- Generator: Adobe Illustrator 24.0.1, SVG Export Plug-In . SVG Version: 6.00 Build 0)  -->
<svg version="1.1" id="Layer_1" xmlns="http://www.w3.org/2000/svg" xmlns:xlink="http://www.w3.org/1999/xlink" x="0px" y="0px"
	 viewBox="0 0 1441 369" style="enable-background:new 0 0 1441 369;" xml:space="preserve">
<style type="text/css">
	.st0{fill:#F1EBD9;}
</style>
<g>
	<path class="st0" d="M1298,75c-75.4,0.6-113.6,41.2-189,40c-70.1-1.1-104.9-38.5-175-40c-85.8-1.8-128.2,51.7-214,50
		c-79-1.6-117.3-56.3-196-50c-52.9,4.2-77.2,34.4-130,40c-81.1,8.6-123.5-37-205-40C114.9,72.3,70,94,0,85c0,0,0-0.5,0-1.4v285.2
		h1440V95C1439.2,94.8,1353.8,74.5,1298,75z"/>
	<path class="st0" d="M0,0.8L0,0.8l0,18C0,9.8,0,3,0,0.8z"/>
</g>
</svg>
