<svg width="1441" height="43" viewBox="0 0 1441 43" fill="none" xmlns="http://www.w3.org/2000/svg">
<path d="M45.519 34C28.4691 33.8603 14.519 21.5 0.0353996 26.5C-0.00140293 26.5127 0.0353996 0 0.0353996 0H1440.04V26.5C1440.04 26.5 1391.07 39.3787 1359.04 39.5C1331.67 39.6036 1316.9 28.7342 1289.54 28.5C1260.23 28.2492 1244.09 43.3105 1215.04 39.5C1192.14 36.4972 1182.04 22.8348 1159.04 22.5C1130.08 22.0786 1114.93 35.3973 1086.04 33.5C1066.85 32.2399 1058.56 22.2024 1039.54 24.9915C1025.61 27.0329 1018.9 34.5916 1005.04 37C984.247 40.6101 970.131 30.5568 949.036 30.9915C920.267 31.5842 904.705 38.0392 876.036 40.4915C834.416 44.0514 820.302 23.1891 778.536 22.5C745.443 21.954 732.101 33.441 699.036 31.9915C676.998 31.0254 661.513 28.394 639.536 26.5C601.844 23.2518 601.367 34.5732 563.536 34.4915C515.169 34.387 468.535 24.7138 419.535 24.7138C404.703 24.7138 394.17 29.3158 375.035 30.4915C356.455 31.633 350.726 28.7619 337.035 26.5C308.331 21.7574 300.196 21.4729 272.535 30.4915C259.916 34.606 245.034 38.8144 232.035 41.5C210.235 46.0039 196.789 33.0481 174.535 32.4915C149.613 31.868 135.964 39.2662 111.035 38.9915C93.8301 38.8019 87.5352 25.9487 70.519 28.5C56.9275 30.5379 59.262 34.1126 45.519 34Z" fill="#F7B243"/>
</svg>
