<svg width="1441" height="126" viewBox="0 0 1441 126" fill="none" xmlns="http://www.w3.org/2000/svg">
<path d="M0.0353508 0H1440.04V95C1440.04 95 1354.04 74.5358 1298.04 75C1222.59 75.6253 1184.47 116.218 1109.04 115C1038.94 113.868 1004.12 76.464 934.035 75C848.231 73.2077 805.841 126.738 720.035 125C641.057 123.401 602.781 68.7353 524.035 75C471.086 79.2125 446.855 109.391 394.035 115C312.924 123.614 270.548 77.981 189.035 75C114.864 72.2874 70 94 0.0353508 85C-0.0443769 84.9897 0.0353508 0 0.0353508 0Z" fill="#EDE6D1"/>
</svg>
