<svg width="1441" height="115" viewBox="0 0 1441 115" fill="none" xmlns="http://www.w3.org/2000/svg">
<path d="M0.0354065 0H1440.04V82C1440.04 82 1354.04 69.5358 1298.04 70C1222.59 70.6253 1184.47 115.218 1109.04 114C1038.94 112.868 1004.12 66.464 934.036 65C848.231 63.2077 805.841 106.738 720.036 105C641.058 103.401 602.781 68.7353 524.036 75C471.086 79.2125 446.855 89.3908 394.035 95C312.924 103.614 270.548 77.981 189.035 75C114.864 72.2874 31.0192 86 0.0354065 82C0.0192819 81.9979 0.0354065 0 0.0354065 0Z" fill="#F1EBD9"/>
</svg>
