<svg width="93" height="95" viewBox="0 0 93 95" fill="none" xmlns="http://www.w3.org/2000/svg">
<g clip-path="url(#clip0_0_103)">
<path d="M39.2722 15.5316C40.5993 15.0635 42.0547 15.76 43.4544 15.7731C45.4049 15.7638 47.0371 14.4355 48.5948 13.3015C50.1526 12.1675 52.156 11.1529 53.968 11.7862C54.8355 12.1466 55.5902 12.7316 56.1526 13.4797C57.0744 14.6533 57.7321 16.0083 58.0809 17.4528C58.4298 18.8973 58.4618 20.3977 58.1747 21.8524C58.0188 22.6011 57.7748 23.3446 57.8371 24.1149C57.8994 24.8851 58.3632 25.689 59.115 25.8498C60.1103 26.0907 60.9638 25.1337 61.54 24.2649C63.0202 22.1386 64.4706 20.0266 65.9509 17.9004C66.7545 16.7674 67.5491 15.5989 68.6722 14.7917C69.7953 13.9845 71.3137 13.5824 72.6002 14.1155C74.1397 14.7348 74.874 16.4091 76.0309 17.565C77.8024 19.3103 80.4161 19.8481 82.7534 20.6517C85.0906 21.4553 87.6178 23.0263 87.9688 25.477C88.3759 28.4562 85.4178 31.3204 86.3608 34.1661C86.5705 34.7764 86.9404 35.3594 87.1237 35.9847C87.7213 37.9326 86.3575 39.9165 84.777 41.1773C81.8237 43.5221 75.013 41.8375 71.249 42.1661C70.7504 42.2024 70.1524 42.2896 69.919 42.7147C69.6857 43.1398 69.9222 43.7055 70.1547 44.1889C71.4918 46.6083 80.3142 55.9942 68.8034 58.6611C67.3621 58.9841 65.7876 58.8577 64.4547 59.4868C63.6769 59.8546 62.9761 60.4647 62.149 60.7381C60.1277 61.4154 57.9884 59.9705 56.6733 58.3326C55.3582 56.6948 54.3764 54.6624 52.6039 53.4783C50.2114 51.8362 44.9939 50.3753 42.1297 50.7862C41.79 50.8282 41.417 50.8834 41.2364 51.1674C41.1489 51.3191 41.1004 51.49 41.0952 51.665C41.0899 51.8401 41.128 52.014 41.2062 52.1714C41.9235 54.7868 45.288 59.5003 43.7838 61.7715C42.5001 63.7768 39.5453 64.0526 37.2182 63.4475C34.8912 62.8425 32.7163 61.5025 30.3385 61.0315C27.7032 60.5323 25.0214 61.0843 22.4169 61.7236C20.02 62.3126 17.6587 62.9543 15.333 63.6486C14.3948 63.9328 12.1122 64.7359 11.0109 64.0271C7.12474 67.1897 3.70889 70.8801 0.863495 74.9899L0.0849501 74.4415C2.99439 70.2321 6.49393 66.4563 10.4789 63.2271C10.2746 61.8167 12.6341 59.1947 13.2975 58.2791C14.6984 56.4167 16.284 54.6984 18.0305 53.1496C18.7102 52.6206 19.3013 51.9888 19.7824 51.2772C20.5231 49.9058 20.2275 48.2235 20.1228 46.6366C20.0371 44.7093 20.3563 42.7874 21.0601 40.9927C21.7639 39.1981 22.8369 37.5698 24.2112 36.2112C24.6941 35.6555 25.3339 35.256 26.0488 35.0635C27.6354 34.713 29.1098 36.0351 29.7842 37.5013C30.4587 38.9675 30.5739 40.6125 31.2783 42.0646C31.6704 42.8714 32.4814 43.7167 33.3519 43.4623C33.9041 43.2816 34.2011 42.7443 34.4816 42.2543C35.7762 39.8185 37.0689 37.3847 38.3599 34.9529C38.6315 34.5108 38.8137 34.0202 38.8963 33.5083C38.9372 32.8544 38.6249 32.2092 38.3739 31.6138C37.2964 29.3119 36.2801 26.8935 35.9824 24.3832C35.6848 21.873 36.0897 19.1779 37.6049 17.1164C37.7603 16.7546 37.988 16.428 38.2743 16.1563C38.5607 15.8845 38.8998 15.6732 39.2713 15.535" fill="#78925D"/>
<path d="M45.1317 20.2929C49.0897 18.4784 52.9128 16.3899 56.5727 14.0427L56.2068 13.5421C52.6146 15.904 48.6993 17.8838 44.8509 19.7116C42.317 20.9091 39.7621 21.9901 37.1797 22.9789C36.7122 23.1639 36.272 23.3303 35.8189 23.5451C35.848 23.7708 35.8601 23.9624 35.8901 24.1847C36.2147 24.0316 36.5529 23.9117 36.8775 23.7585C39.6721 22.6605 42.4196 21.6126 45.1317 20.2929Z" fill="#2F7253"/>
<path d="M47.3756 38.8127C49.8417 37.6451 52.1753 36.2203 54.6005 35.038C59.6324 32.5817 64.4399 29.7513 69.4882 27.2476C72.2476 25.8631 75.1317 24.7373 77.9608 23.4822C79.6583 22.7181 81.1776 21.644 82.724 20.6362L82.0414 20.3979C81.0062 21.1658 79.9067 21.8449 78.7546 22.4279C76.3228 23.5789 73.8111 24.5681 71.3444 25.6543C66.3348 27.9024 61.7128 30.9598 56.7471 33.3083C52.0191 35.5357 47.3401 37.998 42.6159 40.2671C40.3938 41.3597 38.3765 42.788 36.0431 43.6551C33.6122 44.5662 31.3209 45.8471 28.8561 46.8009C25.9556 47.974 23.1527 49.1031 20.1311 50.0037C20.1138 50.0136 20.0947 50.0199 20.0748 50.0222C20.055 50.0245 20.0348 50.0227 20.0156 50.0171C19.9756 50.2762 19.8969 50.5277 19.782 50.7634C22.0477 50.1642 24.2568 49.3746 26.3854 48.4032C31.0268 46.3039 36.0579 44.7561 40.463 42.1318C42.7065 40.8343 45.0896 39.9067 47.393 38.8174" fill="#2F7253"/>
<path d="M33.6377 51.7686C33.6749 51.6063 33.6882 51.4394 33.6772 51.2731C33.6593 51.2424 33.6622 51.162 33.6308 51.0981C33.7452 50.9219 33.3822 50.3408 33.3059 50.18C33.2744 50.1161 33.2266 50.0996 33.2096 50.0655C35.1411 49.1942 37.0213 48.3054 38.9043 47.3362C39.3584 47.118 39.797 46.8735 40.2366 46.6257C40.5311 47.4766 41.3847 48.5807 42.3324 47.8152C42.443 47.7229 42.5749 47.6622 42.7541 47.5366C42.9334 47.3811 43.0553 47.1709 43.1009 46.9388C43.1214 46.8272 43.1185 46.7125 43.0923 46.6019C43.0661 46.4913 43.0171 46.3871 42.9485 46.2959C42.8009 46.0899 42.6694 45.8731 42.555 45.6474C42.5236 45.5836 42.4613 45.5374 42.4309 45.4701L42.6236 45.3777C43.9356 44.7984 45.2207 44.1528 46.4994 43.5868C47.0511 43.3246 47.6361 43.0492 48.1978 42.8192C48.2864 43.3056 48.4827 43.767 48.7726 44.17C49.199 44.6537 49.6843 44.5695 50.1872 44.2942C50.6902 44.019 51.095 43.9427 51.1847 43.3573C51.1936 42.8639 51.055 42.3782 50.7862 41.9614C50.7443 41.8835 50.6841 41.8166 50.6107 41.7666C51.8825 41.1987 53.1487 40.6515 54.4069 40.0504L54.4368 40.0362C54.3896 40.1573 54.3713 40.2876 54.3832 40.4171C54.4154 40.68 54.5289 40.927 54.708 41.1242C54.8872 41.3213 55.1232 41.459 55.3838 41.5183C55.6443 41.5776 55.9166 41.5556 56.1632 41.4553C56.4098 41.355 56.6186 41.1814 56.761 40.9582C57.1735 40.4075 56.9395 39.8462 56.6722 39.298C56.6244 39.1918 56.5406 39.1053 56.4354 39.0536C58.2851 38.0976 60.1024 37.0811 61.9376 36.0954C61.9445 36.3163 62.0088 36.5321 62.1244 36.7216C62.274 37.0172 62.5238 37.2516 62.8297 37.3836C63.1356 37.5156 63.4781 37.5366 63.797 37.4432C63.9238 37.4233 64.0447 37.377 64.1519 37.3073C64.2591 37.2376 64.35 37.1461 64.4186 37.0388C64.4872 36.9315 64.532 36.8108 64.5499 36.6848C64.5679 36.5588 64.5587 36.4304 64.5228 36.3079C64.4659 36.1153 64.3911 35.9284 64.2993 35.7493L64.1925 35.5212C64.212 35.4349 64.2079 35.3448 64.1807 35.2603C64.1535 35.1758 64.1042 35.0998 64.0378 35.0402C64.033 35.0322 64.0252 35.0263 64.016 35.0238C64.0069 35.0214 63.9972 35.0226 63.989 35.0272C65.4325 34.3058 66.9247 33.5975 68.3851 32.9102C68.4542 33.1688 68.6046 33.3991 68.8146 33.5677C69.0245 33.7362 69.2829 33.8342 69.5522 33.8472C70.0972 33.8255 70.6177 33.6212 71.0286 33.2676C71.5801 32.769 71.2858 32.1545 70.9841 31.623C73.159 30.5953 75.4609 29.6644 77.6208 28.5255C77.8839 29.3126 78.714 29.7936 79.4777 29.3112C79.7714 29.1256 79.9878 28.8416 80.0878 28.5106C80.1463 28.2823 80.1271 28.0408 80.0331 27.8237C79.9351 27.6675 79.8235 27.5202 79.6995 27.3834L79.6681 27.3195C82.0429 25.88 84.4142 24.4394 86.8679 23.1651C86.731 22.9962 86.5755 22.8431 86.4044 22.7084C84.3314 23.714 82.325 24.8481 80.3969 26.1038C77.8245 27.7933 75.0216 28.9224 72.2452 30.2729C71.3689 30.6882 70.5265 31.1163 69.6984 31.5187C69.577 31.5362 69.4639 31.5895 69.3738 31.6718L69.1776 31.7633L68.8221 31.934C68.7579 31.9648 68.6738 32.042 68.6095 32.0728C64.572 34.0494 60.531 36.0805 56.6044 38.2419C51.5879 40.9609 46.1744 42.9752 41.017 45.4126C39.7314 46.0322 38.5465 46.8192 37.2813 47.4184L33.2905 49.3041C30.7919 50.4815 28.2629 51.5215 25.749 52.6726C22.6036 54.1206 19.3549 55.3389 16.0285 56.3179C15.4627 56.4655 14.9448 56.6296 14.3782 56.7807C14.1558 57.0328 13.952 57.3003 13.7681 57.5813L14.8696 57.3002C17.5196 56.5328 20.1911 55.8523 22.722 54.7353C25.5269 53.5292 28.3318 52.323 31.1215 51.0759C31.1163 51.1404 31.1216 51.2054 31.1371 51.2684C31.1817 51.5409 31.2968 51.7975 31.4712 52.0133C31.6457 52.229 31.8734 52.3964 32.1321 52.4991C32.2874 52.5494 32.4526 52.5616 32.6133 52.5345C32.774 52.5074 32.9254 52.4419 33.0545 52.3437C33.2501 52.1708 33.5583 52.065 33.6396 51.7617" fill="#2F7253"/>
<path d="M37.0673 28.663C40.107 27.5505 43.0874 26.2865 45.9973 24.8761C49.7053 23.1834 53.3113 21.281 56.7976 19.1783C57.2845 18.8655 57.7874 18.5902 58.2434 18.295C58.2143 18.0693 58.1544 17.8611 58.1244 17.6389C57.75 17.8525 57.3781 18.0705 57.0027 18.2876C53.5193 20.3942 49.9258 22.3177 46.2372 24.0502C43.1526 25.5064 40.0401 26.8998 36.8163 28.0676C36.9097 28.2625 36.9712 28.4784 37.0673 28.663Z" fill="#2F7253"/>
<path d="M31.404 42.3197C31.3421 42.1886 31.2484 42.0785 31.1865 41.9474L31.1067 41.7857C28.3182 42.9445 25.3158 43.1891 22.4676 44.125C21.6748 44.3817 20.8338 44.6513 20.0559 44.9083C20.0372 45.1175 20.0329 45.3565 20.015 45.5623C20.1605 45.5347 20.289 45.4731 20.4205 45.4419C22.7026 44.7132 25.0237 44.1082 27.3734 43.6296C28.758 43.3265 30.1082 42.8877 31.404 42.3197Z" fill="#2F7253"/>
<path d="M29.9679 38.0416C29.8983 37.8259 29.8095 37.6167 29.7025 37.4165C27.9 38.2534 26.0245 38.9278 24.0985 39.4314C23.1632 39.6351 22.224 39.9227 21.2918 40.1568C21.1754 40.4101 21.0899 40.6457 20.9934 40.8526C22.0437 40.5541 23.1418 40.2721 24.2065 40.0033C26.1803 39.5223 28.1051 38.8648 29.9574 38.0388" fill="#2F7253"/>
<path d="M75.688 18.5663C74.4186 19.3343 73.0716 19.9744 71.7537 20.7146C68.9586 22.2743 66.1644 23.8305 63.4834 25.5353C61.1057 27.0553 58.8412 28.7239 56.3412 30.0598C53.6005 31.5417 50.8688 33.0039 48.0167 34.2749C45.1646 35.546 42.4077 36.8795 39.6034 38.1671C38.2705 38.7962 36.9106 39.3589 35.5806 39.9075C35.4334 40.1784 35.2837 40.4448 35.1509 40.7454C37.178 39.9071 39.2016 39.0678 41.1838 38.1325C45.6259 36.039 50.1524 34.09 54.4851 31.764C56.5673 30.6227 58.6449 29.5542 60.6003 28.2312C62.7305 26.7852 64.8469 25.3909 67.0869 24.0925C69.5546 22.6962 71.9898 21.3098 74.4916 19.967C75.4215 19.4774 76.2781 18.9682 77.1413 18.4349C76.967 18.3294 76.8018 18.2098 76.6475 18.0772C76.3194 18.2203 75.9997 18.3812 75.6898 18.5594" fill="#2F7253"/>
<path d="M72.6076 14.0877C70.9463 15.1903 69.3343 16.3873 67.6929 17.4435L65.3017 18.9304C65.0206 19.339 64.7061 19.7607 64.4454 20.2043C65.5029 19.5864 66.5425 18.9378 67.5725 18.283C68.6936 17.5528 69.8796 16.8733 71.0206 16.0967C71.8007 15.567 72.5355 15.0251 73.3012 14.4657C73.0821 14.3189 72.8499 14.1924 72.6076 14.0877" fill="#2F7253"/>
<path d="M38.3816 34.663L39.0618 34.3392C41.5325 33.1543 44.1222 32.0272 46.4472 30.6481C48.7722 29.2691 51.3678 28.2728 53.7046 26.8637C55.117 25.9936 56.4841 25.1114 57.8821 24.2117C57.8686 24.1785 57.8507 24.1478 57.9024 24.1358C57.8799 23.924 57.8833 23.7103 57.9124 23.4995C56.5613 24.3638 55.2758 25.2199 53.9251 26.0547C51.5364 27.4906 48.9769 28.4633 46.6185 29.8555C44.2458 31.2309 41.8017 32.4821 39.2961 33.6041C39.0999 33.6956 38.938 33.7704 38.7444 33.8663C38.6589 34.102 38.5117 34.3728 38.3789 34.6733" fill="#2F7253"/>
<path d="M61.0269 40.7197C60.9374 40.3953 60.7739 40.0953 60.5491 39.8429C60.3242 39.5905 60.044 39.3924 59.7301 39.2641C59.7219 39.2687 59.7122 39.2699 59.7031 39.2674C59.694 39.265 59.6862 39.2591 59.6814 39.2511C59.0595 38.8702 58.1318 39.5746 58.2172 40.2587C58.2864 40.5894 58.4235 40.9027 58.6199 41.1792C58.7225 41.3685 58.8687 41.5311 59.0466 41.6539C59.2246 41.7767 59.4291 41.8561 59.6435 41.8857C60.4639 42.0131 61.2383 41.5742 61.0288 40.7128" fill="#2F7253"/>
<path d="M65.4866 41.1095C65.5505 40.8587 65.5298 40.5937 65.4275 40.3549L65.4131 40.3252L65.3512 40.1941L65.3019 40.0996C65.2577 39.9921 65.1793 39.9017 65.0788 39.8421C64.9782 39.7824 64.8609 39.7569 64.7448 39.7693C64.6925 39.7553 64.68 39.7187 64.6321 39.7022C64.4726 39.6021 64.3003 39.5237 64.1199 39.4689C63.9431 39.3862 63.7468 39.354 63.5531 39.3758C63.3593 39.3977 63.1758 39.4727 63.0233 39.5925C62.9444 39.6632 62.8847 39.7524 62.8496 39.852C62.8144 39.9515 62.8049 40.0584 62.8219 40.1628C62.9115 40.5573 63.1259 40.9138 63.4338 41.18C63.7042 41.3631 64.0014 41.5038 64.3147 41.597C64.5348 41.6756 64.7761 41.6707 64.9918 41.5832C65.2076 41.4956 65.3826 41.3318 65.4829 41.1232" fill="#2F7253"/>
<path d="M69.3563 36.3471C68.5899 35.9971 67.7199 35.9461 66.9204 36.2041C66.804 36.2571 66.7074 36.3449 66.6441 36.4552L66.6098 36.4718C65.8814 36.9342 66.3498 37.9019 66.9547 38.2486C67.3404 38.4665 67.6965 38.3772 68.1453 38.4014C68.5878 38.4476 69.0335 38.3611 69.4246 38.1532C69.602 38.0754 69.7515 37.9465 69.8539 37.7833C69.9562 37.6201 70.0067 37.4299 69.9989 37.2374C69.991 37.0449 69.9252 36.8588 69.8098 36.7032C69.6944 36.5476 69.5349 36.4296 69.3516 36.3643" fill="#2F7253"/>
<path d="M55.7779 45.9362C55.8848 45.756 55.9426 45.5511 55.9458 45.3416C55.949 45.1321 55.8974 44.925 55.796 44.7406C55.5959 44.3176 55.3397 43.9645 55.1386 43.545C55.117 43.4903 55.0846 43.4405 55.0434 43.3984C55.0021 43.3562 54.9528 43.3226 54.8984 43.2996C54.4875 42.7019 53.7455 42.8947 53.3843 43.4628C53.2983 43.625 53.2588 43.8078 53.2702 43.9912C53.2816 44.1746 53.3434 44.3516 53.4488 44.5032C53.6528 44.8423 53.8432 45.1482 54.0129 45.5039C54.2609 46.1799 55.2689 46.6938 55.764 45.9325" fill="#2F7253"/>
<path d="M60.4236 44.5732C60.1263 44.0393 59.4588 43.2435 58.7496 43.3416C57.9248 43.4531 57.7048 44.2326 58.0983 44.881C58.3148 45.1833 58.5591 45.4652 58.828 45.723C59.0596 46.0466 59.4062 46.2715 59.7976 46.3522C60.6817 46.3674 60.6998 45.1718 60.419 44.5905" fill="#2F7253"/>
<path d="M65.6719 46.0165C65.7562 45.59 65.6829 45.1469 65.4653 44.768L65.4483 44.7339L65.4339 44.7042C65.2294 44.3754 65.0067 44.058 64.7669 43.7534C64.6737 43.6521 64.5508 43.5824 64.4156 43.5541C64.2805 43.5259 64.14 43.5406 64.0142 43.5961L63.9808 43.6093C63.826 43.6156 63.6791 43.6776 63.5675 43.7837C63.456 43.8898 63.3875 44.0327 63.3748 44.1857C63.2685 44.7076 63.5687 45.1611 63.7295 45.6474C63.8903 46.1338 64.1032 46.5787 64.6004 46.7008C64.7154 46.7288 64.8348 46.7337 64.9515 46.7153C65.0683 46.6968 65.18 46.6554 65.28 46.5934C65.3801 46.5314 65.4666 46.4501 65.5343 46.3543C65.602 46.2585 65.6496 46.1501 65.6743 46.0356" fill="#2F7253"/>
<path d="M47.9405 48.6123C48.0444 48.5172 48.1097 48.3876 48.124 48.2478L48.1369 48.1995C48.2162 48.1711 48.2883 48.1261 48.3484 48.0676C48.4085 48.0091 48.4552 47.9384 48.4853 47.8604C48.5154 47.7823 48.5282 47.6987 48.5229 47.6151C48.5176 47.5316 48.4943 47.45 48.4546 47.376C48.3608 47.0034 48.2142 46.6458 48.019 46.3136C47.8148 46.0622 47.551 45.8646 47.2513 45.7386C47.0875 45.6347 46.8921 45.5918 46.7 45.6174C46.5078 45.6431 46.3315 45.7357 46.2025 45.8786C46.0972 46.0326 46.028 46.208 46 46.3922C45.9719 46.5764 45.9857 46.7647 46.0404 46.9433C46.1307 47.3295 46.2716 47.7026 46.4595 48.053C46.5477 48.3209 46.7062 48.561 46.9188 48.7485C47.0798 48.8371 47.2648 48.8729 47.4472 48.8508C47.6295 48.8286 47.7997 48.7496 47.9333 48.6251" fill="#2F7253"/>
<path d="M77.1516 33.2571C77.2571 33.1158 77.3082 32.9416 77.2958 32.7658C77.2835 32.5899 77.2085 32.4238 77.0842 32.2972C76.8546 32.0238 76.5996 31.7724 76.3225 31.5464C76.0908 31.3187 75.7835 31.1825 75.4586 31.1634C75.2675 31.136 75.0728 31.1639 74.8979 31.2436C74.723 31.3233 74.5753 31.4515 74.4725 31.6128C74.3698 31.7741 74.3164 31.9617 74.3188 32.1529C74.3211 32.3441 74.3791 32.5308 74.4859 32.6906C74.6781 32.9719 74.9258 33.2118 75.214 33.3957C75.5022 33.5796 75.8248 33.7036 76.1622 33.7603C76.3579 33.7686 76.5521 33.7263 76.7258 33.6374C76.8994 33.5486 77.0465 33.4163 77.1525 33.2537" fill="#2F7253"/>
<path d="M38.4215 51.9237C38.4797 51.8535 38.522 51.7716 38.5455 51.6836C38.5691 51.5956 38.5734 51.5036 38.5581 51.4136C38.3758 50.7849 38.162 49.8558 37.373 49.7922C37.1724 49.7733 36.9719 49.8256 36.8072 49.9398C36.6908 50.0512 36.5913 50.1788 36.5117 50.3186C36.5246 50.2704 36.3803 50.4607 36.3469 50.4739C36.2916 50.5606 36.2576 50.659 36.2475 50.7613C36.2328 50.9164 36.2412 51.073 36.2723 51.2259C36.3936 51.7202 36.7514 52.5437 37.3815 52.6572C37.6178 52.6916 37.8579 52.6348 38.0521 52.4985C38.2463 52.3621 38.3798 52.1566 38.4249 51.9246" fill="#2F7253"/>
<path d="M53.6083 48.7827C53.6578 48.6274 53.6596 48.4607 53.6135 48.3039C53.3317 47.726 53.1179 47.0334 52.3459 47.0039C52.1734 46.9845 51.999 47.0126 51.842 47.0851C51.6851 47.1576 51.5515 47.2717 51.4561 47.4149C51.3606 47.558 51.307 47.7247 51.301 47.8966C51.2951 48.0685 51.3371 48.2389 51.4224 48.3891C51.658 48.9028 51.9693 49.677 52.5949 49.7375C52.7261 49.7464 52.8576 49.7281 52.9809 49.6836C53.1042 49.6392 53.2167 49.5697 53.3111 49.4796C53.4055 49.3894 53.4798 49.2806 53.5292 49.1601C53.5786 49.0396 53.602 48.9101 53.5979 48.7799" fill="#2F7253"/>
<path d="M75.3098 36.9413C75.2928 36.9072 75.3127 36.8608 75.2948 36.8302C75.2818 36.733 75.2499 36.6391 75.2009 36.5538L75.0448 36.2313C74.9556 36.0358 74.8514 35.8473 74.7331 35.6675C74.641 35.5598 74.5268 35.4726 74.3983 35.4117C74.2698 35.3509 74.1298 35.3178 73.9877 35.3146C73.8455 35.3115 73.7045 35.3384 73.574 35.3935C73.4434 35.4486 73.3264 35.5307 73.2306 35.6343C72.6447 36.1496 73.1207 36.713 73.4334 37.2031C73.4961 37.3859 73.5923 37.5557 73.7172 37.704C73.8328 37.8284 73.9846 37.914 74.1514 37.9488C74.3181 37.9835 74.4914 37.9656 74.6468 37.8976C74.7068 37.8763 74.7589 37.8375 74.7961 37.7862C74.8905 37.7754 74.9811 37.7434 75.061 37.6926C75.141 37.6419 75.2081 37.5737 75.2573 37.4933C75.3066 37.4129 75.3366 37.3223 75.3452 37.2285C75.3539 37.1346 75.3408 37.04 75.307 36.9516" fill="#2F7253"/>
<path d="M58.5724 51.0363C58.693 50.8886 58.7583 50.7039 58.7573 50.5133C58.8257 50.4255 58.8713 50.3223 58.8901 50.2128C58.934 49.875 58.8663 49.5315 58.6971 49.2339C58.523 48.8807 58.3833 48.5108 57.9175 48.4525C57.7494 48.4269 57.5778 48.4417 57.4171 48.4958C57.2564 48.5498 57.1114 48.6414 56.9943 48.7629C56.8772 48.8844 56.7915 49.0322 56.7443 49.1938C56.6972 49.3554 56.6901 49.526 56.7235 49.6914C56.8133 50.0285 56.9211 50.3607 57.0465 50.6866C57.0826 50.8213 57.1465 50.9474 57.2341 51.0567C57.3217 51.166 57.4312 51.2562 57.5555 51.3216C57.7336 51.392 57.9299 51.4022 58.1138 51.3506C58.2977 51.299 58.4589 51.1885 58.5724 51.0363Z" fill="#2F7253"/>
<path d="M64.2257 51.177C63.9613 50.5484 63.7189 49.4751 62.7692 49.6491C62.5805 49.6868 62.4061 49.7754 62.2654 49.9051C62.1246 50.0349 62.0229 50.2008 61.9713 50.3846C61.8596 50.8016 62.1035 51.1587 62.2919 51.5417C62.5901 52.0722 62.8673 52.9739 63.6272 52.8118C64.3871 52.6498 64.4966 51.7261 64.2292 51.1779" fill="#2F7253"/>
</g>
<defs>
<clipPath id="clip0_0_103">
<rect width="74.6315" height="77.3956" fill="white" transform="translate(20.0315) rotate(15)"/>
</clipPath>
</defs>
</svg>
