<svg width="76" height="79" viewBox="0 0 76 79" fill="none" xmlns="http://www.w3.org/2000/svg">
<g clip-path="url(#clip0_0_130)">
<path d="M23.0195 68.7697C24.2015 69.5819 25.8167 69.2796 27.1969 69.6365C29.113 70.161 30.3684 71.9018 31.6018 73.4314C32.8352 74.961 34.5384 76.4906 36.4876 76.3449C37.436 76.2188 38.3325 75.8413 39.0829 75.2523C40.299 74.3388 41.3029 73.1766 42.0268 71.8445C42.7507 70.5124 43.1776 69.0415 43.2786 67.5315C43.3226 66.7521 43.2786 65.9546 43.5429 65.2116C43.8072 64.4687 44.4753 63.7986 45.2571 63.8386C46.2997 63.8641 46.887 65.0332 47.2247 66.042C48.1204 68.5294 48.9903 70.9949 49.886 73.4824C50.3779 74.8117 50.8514 76.1737 51.7434 77.2663C52.6354 78.3589 54.023 79.1564 55.4289 78.9707C57.1065 78.7668 58.2701 77.31 59.7127 76.476C61.9152 75.2232 64.6279 75.3834 67.1387 75.2086C69.6495 75.0338 72.5495 74.1525 73.5406 71.8289C74.7262 68.9992 72.5715 65.3937 74.249 62.8371C74.6161 62.2908 75.1337 61.8137 75.4788 61.2456C76.58 59.4829 75.7614 57.1667 74.539 55.506C72.2521 52.414 65.1088 52.2756 61.493 50.9572C61.0122 50.7897 60.4469 50.5457 60.3294 50.065C60.2119 49.5842 60.5937 49.0889 60.9498 48.6738C62.9026 46.6416 74.0545 39.7183 63.4349 34.0479C62.1024 33.3487 60.5203 33.0573 59.375 32.0849C58.7069 31.5168 58.1783 30.7301 57.4368 30.2421C55.6271 29.0403 53.142 29.8998 51.4167 31.1672C49.6915 32.4346 48.1901 34.179 46.1345 34.8783C43.3483 35.8652 37.8311 35.9271 35.1221 34.7654C34.7991 34.6343 34.4467 34.4813 34.3439 34.1535C34.2978 33.9808 34.2952 33.7995 34.3361 33.6256C34.3771 33.4516 34.4604 33.2902 34.5788 33.1556C35.9737 30.7666 40.5255 27.0081 39.6445 24.3714C38.9104 22.0551 36.0765 21.0026 33.6281 20.9844C31.1797 20.9662 28.6872 21.7128 26.2241 21.5489C23.5004 21.345 21.0079 20.0922 18.6146 18.7738C16.4121 17.5598 14.2586 16.3034 12.154 15.0044C11.306 14.4764 9.27241 13.0815 8.00232 13.4894C5.0133 9.34455 2.62598 4.80366 0.910356 -0.000175476L0 0.334877C1.75239 5.25376 4.1995 9.90102 7.26816 14.1377C6.69552 15.4742 8.32535 18.6828 8.73648 19.7607C9.62368 21.967 10.7304 24.0801 12.0402 26.0685C12.5692 26.7697 12.9842 27.5488 13.2699 28.3775C13.637 29.9253 12.9028 31.5059 12.3816 33.0427C11.7893 34.9204 11.5968 36.8996 11.816 38.855C12.0353 40.8104 12.6616 42.6992 13.6553 44.4018C13.9839 45.0772 14.5078 45.6402 15.1604 46.0188C16.6287 46.7836 18.4274 45.8695 19.4772 44.6021C20.5271 43.3347 21.074 41.7432 22.1495 40.4977C22.7479 39.8057 23.7684 39.1866 24.5576 39.6674C25.0531 39.9915 25.2036 40.5997 25.3505 41.1569C25.9818 43.9005 26.612 46.6416 27.2409 49.3803C27.3915 49.888 27.4414 50.4198 27.3878 50.9463C27.2556 51.6018 26.7784 52.1554 26.3746 52.6762C24.7081 54.661 23.0709 56.777 22.1165 59.1733C21.1621 61.5697 20.8501 64.3339 21.7971 66.7667C21.8546 67.1645 21.9925 67.5466 22.2026 67.8902C22.4127 68.2338 22.6905 68.5317 23.0195 68.7661" fill="#78925D"/>
<path d="M30.0381 65.6233C33.453 68.458 36.6631 71.5272 39.6445 74.8082L39.1526 75.2051C36.2417 71.9274 32.9123 68.9411 29.6086 66.1223C27.4318 64.2722 25.2036 62.5313 22.9241 60.8743C22.5129 60.5684 22.1238 60.2879 21.7347 59.9565C21.8228 59.7416 21.8852 59.5559 21.9733 59.3447C22.2523 59.5814 22.5533 59.789 22.8323 60.0257C25.2917 61.8467 27.7181 63.6057 30.0381 65.6233Z" fill="#2F7253"/>
<path d="M37.1264 47.9565C39.2444 49.7592 41.1642 51.7805 43.2382 53.5868C47.5404 57.338 51.5232 61.3987 55.829 65.2008C58.1783 67.2949 60.7185 69.1669 63.1706 71.1517C64.6389 72.3535 65.8503 73.8139 67.1057 75.2161L66.3715 75.2707C65.5557 74.2401 64.6531 73.28 63.6735 72.4009C61.5848 70.6236 59.375 68.9848 57.235 67.2622C52.8997 63.7222 49.1592 59.4867 44.8938 55.8594C40.8302 52.4141 36.8768 48.7504 32.8279 45.2651C30.9301 43.6008 29.3223 41.6596 27.2556 40.1883C25.1045 38.6478 23.1884 36.7795 21.0153 35.188C18.4714 33.2651 16.012 31.4113 13.2773 29.7251C13.2628 29.7108 13.2456 29.6996 13.2267 29.6921C13.2078 29.6846 13.1875 29.6809 13.1671 29.6814C13.1961 29.4154 13.185 29.1466 13.1341 28.8839C15.2048 30.0732 17.1696 31.4353 19.0074 32.9555C23.0195 36.2514 27.5603 39.1067 31.2017 42.8578C33.0665 44.7297 35.1662 46.2739 37.1447 47.9565" fill="#2F7253"/>
<path d="M27.028 31.5533C27.0218 31.7232 26.9909 31.8912 26.9362 32.0523C26.9105 32.0778 26.8922 32.1579 26.8445 32.2125C26.9105 32.4165 26.4003 32.8936 26.2828 33.032C26.2351 33.0866 26.1837 33.0902 26.158 33.1194C27.8282 34.4887 29.4434 35.8617 31.0402 37.3148C31.4293 37.6499 31.7964 38.0068 32.1634 38.3673C32.6773 37.6062 33.8079 36.7431 34.5384 37.7482C34.6229 37.8684 34.7367 37.9631 34.8798 38.1343C35.0152 38.3349 35.0797 38.5744 35.0634 38.8153C35.0542 38.9307 35.0211 39.043 34.9661 39.1452C34.9112 39.2473 34.8355 39.3371 34.744 39.4089C34.5445 39.573 34.358 39.752 34.186 39.9443C34.1383 39.9989 34.0649 40.028 34.0172 40.0863L34.1824 40.2283C35.3203 41.1461 36.4142 42.1221 37.5228 43.018C37.9963 43.4223 38.4992 43.8484 38.9911 44.2235C39.2064 43.7674 39.5211 43.3643 39.9125 43.0435C40.4594 42.6793 40.9146 42.8906 41.3367 43.2948C41.7589 43.6991 42.137 43.8812 42.0709 44.4821C41.9496 44.9709 41.6853 45.4132 41.311 45.7531C41.2493 45.8189 41.1725 45.8688 41.0871 45.8988C42.1884 46.7947 43.2896 47.6687 44.3688 48.5938L44.3945 48.6156C44.38 48.4838 44.3964 48.3505 44.4422 48.226C44.5432 47.9753 44.7199 47.7617 44.9481 47.6146C45.1762 47.4676 45.4447 47.3942 45.7166 47.4046C45.9885 47.4149 46.2505 47.5086 46.4667 47.6726C46.6828 47.8366 46.8424 48.063 46.9237 48.3206C47.1843 48.9725 46.8062 49.4642 46.3988 49.934C46.3237 50.0262 46.2185 50.0893 46.1014 50.1125C47.6688 51.5437 49.1886 53.026 50.734 54.4827C50.7989 54.2667 50.919 54.071 51.0827 53.9146C51.3078 53.6627 51.6152 53.4976 51.9509 53.4483C52.2866 53.399 52.6291 53.4687 52.9181 53.6451C53.0376 53.6981 53.1444 53.7757 53.2314 53.8728C53.3184 53.9698 53.3837 54.0841 53.4229 54.208C53.4621 54.3319 53.4744 54.4627 53.4589 54.5917C53.4433 54.7207 53.4004 54.8449 53.3329 54.9562C53.2261 55.131 53.1032 55.2956 52.9658 55.4478L52.8006 55.6445C52.797 55.7348 52.7692 55.8225 52.7202 55.8986C52.6712 55.9748 52.6027 56.0366 52.5216 56.0779C52.5148 56.0846 52.5055 56.0883 52.4959 56.0883C52.4863 56.0883 52.4771 56.0846 52.4702 56.0779C53.7 57.1704 54.9811 58.263 56.2365 59.3264C56.3725 59.0898 56.5812 58.9024 56.8321 58.7917C57.0831 58.681 57.3631 58.6527 57.6314 58.711C58.1617 58.8763 58.6198 59.2153 58.9308 59.6724C59.3419 60.3098 58.8904 60.8378 58.4536 61.2821C60.3221 62.87 62.341 64.396 64.1654 66.0894C64.6316 65.3829 65.5749 65.128 66.199 65.8054C66.4389 66.066 66.5769 66.4032 66.5881 66.7559C66.5855 66.9965 66.5029 67.2295 66.3532 67.4187C66.2156 67.5468 66.067 67.6626 65.909 67.7647L65.8613 67.8194C67.8178 69.8661 69.7707 71.9128 71.8483 73.8176C71.6692 73.9478 71.4759 74.0578 71.272 74.1453C69.4981 72.6062 67.8233 70.958 66.2577 69.2106C64.1727 66.8652 61.7133 65.0114 59.3383 62.9465C58.5858 62.3055 57.87 61.6609 57.1615 61.0454C57.0467 60.9961 56.9495 60.9136 56.8825 60.8087L56.7137 60.6667L56.409 60.4044C56.3539 60.3571 56.2915 60.2588 56.2365 60.2114C52.7859 57.1959 49.3464 54.1258 46.0537 50.9574C41.836 46.9513 37.0419 43.5352 32.6113 39.7695C31.51 38.8189 30.552 37.73 29.4654 36.805L26.0369 33.8914C23.8895 32.0705 21.676 30.377 19.5066 28.5779C16.7943 26.3194 13.9198 24.2599 10.9059 22.4158C10.3883 22.1208 9.92213 21.8222 9.40455 21.5236C9.25231 21.2163 9.12228 20.8986 9.01544 20.573L10.0249 21.1412C12.4293 22.5979 14.8777 23.9746 17.0728 25.7445C19.5139 27.6747 21.955 29.6049 24.3704 31.5716C24.3822 31.5065 24.4046 31.4438 24.4364 31.3858C24.5521 31.129 24.733 30.9064 24.9614 30.7397C25.1898 30.5731 25.458 30.4682 25.7396 30.4353C25.9056 30.4267 26.0712 30.4584 26.2222 30.5276C26.3731 30.5967 26.5048 30.7013 26.6059 30.8323C26.7527 31.0544 27.028 31.2401 27.028 31.5606" fill="#2F7253"/>
<path d="M24.3116 55.2403C27.0083 57.1402 29.6069 59.1738 32.0974 61.3331C35.2986 63.9816 38.3442 66.8099 41.2193 69.8042C41.6157 70.2412 42.0379 70.6455 42.4086 71.057C42.3205 71.2719 42.2067 71.4613 42.1186 71.6725C41.8066 71.3629 41.4983 71.0497 41.1862 70.7365C38.315 67.7392 35.2874 64.8934 32.1157 62.2108C29.4654 59.9601 26.7711 57.7641 23.9078 55.761C24.051 55.5935 24.1685 55.3969 24.3116 55.2403Z" fill="#2F7253"/>
<path d="M22.3404 40.2793C22.2449 40.3922 22.1238 40.476 22.0284 40.5889L21.9072 40.7273C19.4698 38.8481 16.5809 37.8138 14.0261 36.1385C13.3139 35.676 12.5577 35.188 11.8603 34.7291C11.897 34.5179 11.9557 34.2811 11.9924 34.0736C12.1283 34.1391 12.2384 34.2338 12.3595 34.2994C14.4123 35.6207 16.5359 36.8304 18.721 37.923C20.0031 38.5877 21.2155 39.377 22.3404 40.2793Z" fill="#2F7253"/>
<path d="M19.8002 44.1179C19.675 44.3122 19.5325 44.495 19.3744 44.6642C17.822 43.3628 16.1549 42.2024 14.3932 41.1971C13.5269 40.7491 12.6789 40.2174 11.8236 39.7403C11.7759 39.4599 11.7539 39.205 11.7135 38.9755C12.6679 39.5473 13.6737 40.1155 14.6501 40.6617C16.4649 41.6574 18.1849 42.8142 19.7892 44.1179" fill="#2F7253"/>
<path d="M59.6393 75.3982C58.5931 74.3056 57.4368 73.3187 56.3356 72.2407C53.9973 69.9645 51.659 67.6919 49.4712 65.3029C47.533 63.176 45.7454 60.9326 43.6383 58.955C41.3331 56.7699 39.0315 54.6066 36.561 52.5999C34.0906 50.5932 31.7303 48.5501 29.3112 46.5398C28.166 45.5674 26.9766 44.6533 25.813 43.761C25.7396 43.4551 25.6625 43.1529 25.6111 42.8214C27.3841 44.1835 29.1534 45.5456 30.8566 46.9914C34.6743 50.2291 38.613 53.3465 42.2618 56.7845C44.0091 58.4597 45.7711 60.0622 47.3458 61.8831C49.0601 63.8716 50.7743 65.8054 52.6354 67.6774C54.6947 69.7059 56.7247 71.7162 58.8317 73.7011C59.6173 74.4294 60.3257 75.1578 61.0342 75.9117C60.835 75.9696 60.641 76.0439 60.4542 76.1339C60.1692 75.9062 59.8972 75.663 59.6393 75.4055" fill="#2F7253"/>
<path d="M55.4289 79C54.0854 77.474 52.8153 75.868 51.4792 74.393L49.519 72.2953C49.3501 71.8182 49.1519 71.3192 49.0124 70.813C49.8897 71.7016 50.7413 72.6158 51.5819 73.5335C52.4923 74.5496 53.4797 75.5329 54.3974 76.6C55.0251 77.3284 55.6051 78.0567 56.2108 78.8106C55.9566 78.8975 55.6949 78.9609 55.4289 79" fill="#2F7253"/>
<path d="M27.1859 49.6718L27.7695 50.1708C29.8876 51.9917 32.1377 53.7872 34.0612 55.7611C35.9847 57.735 38.2753 59.403 40.2025 61.4097C41.3624 62.6406 42.4747 63.8716 43.6126 65.128C43.5906 65.1572 43.5649 65.1827 43.6126 65.2081C43.5347 65.4111 43.4817 65.6226 43.4548 65.8382C42.3535 64.6291 41.3147 63.4455 40.2061 62.2655C38.2349 60.2188 35.9737 58.5835 34.0209 56.5878C32.0495 54.605 29.9751 52.7256 27.8062 50.9574C27.6374 50.8154 27.4979 50.6988 27.3327 50.5532C27.3107 50.2982 27.2372 49.9923 27.1859 49.6609" fill="#2F7253"/>
<path d="M51.057 49.6827C50.8835 49.979 50.6436 50.2316 50.3558 50.421C50.0681 50.6105 49.7403 50.7317 49.3978 50.7753C49.3909 50.7686 49.3817 50.7649 49.3721 50.7649C49.3625 50.7649 49.3532 50.7686 49.3464 50.7753C48.6343 50.9865 47.9074 50.0469 48.1717 49.395C48.3269 49.0873 48.5444 48.8145 48.8105 48.5938C48.9612 48.4343 49.148 48.3126 49.3553 48.2385C49.5627 48.1644 49.7848 48.1402 50.0035 48.1677C50.8441 48.2588 51.4901 48.8961 51.057 49.69" fill="#2F7253"/>
<path d="M55.5463 50.4767C55.5432 50.7408 55.4529 50.9966 55.2894 51.2051L55.2674 51.2306L55.1719 51.3435L55.0985 51.4236C55.0267 51.5179 54.9258 51.5863 54.8112 51.6185C54.6965 51.6508 54.5745 51.645 54.4635 51.602C54.4084 51.602 54.3864 51.6348 54.335 51.6384C54.1517 51.6949 53.9615 51.7268 53.7697 51.7331C53.574 51.7679 53.3724 51.7478 53.1875 51.6751C53.0027 51.6024 52.842 51.48 52.7235 51.3216C52.6646 51.231 52.6294 51.1273 52.6211 51.0199C52.6127 50.9124 52.6315 50.8046 52.6758 50.7061C52.8678 50.3408 53.1727 50.046 53.5458 49.8648C53.86 49.7557 54.1894 49.6955 54.5222 49.6864C54.7594 49.6671 54.9954 49.7357 55.1846 49.8789C55.3737 50.0222 55.5026 50.23 55.5463 50.4621" fill="#2F7253"/>
<path d="M58.0976 56.1944C57.2515 56.337 56.3823 56.1576 55.6638 55.6919C55.5634 55.6089 55.4915 55.4968 55.4583 55.3714L55.4289 55.3459C54.8342 54.6976 55.55 53.8673 56.2365 53.6852C56.6733 53.5723 57 53.7544 57.4478 53.8491C57.8953 53.9205 58.3109 54.1235 58.6409 54.4318C58.7948 54.5554 58.9079 54.7219 58.9656 54.9099C59.0232 55.0979 59.0228 55.2987 58.9643 55.4864C58.9059 55.6742 58.792 55.8402 58.6375 55.9632C58.4831 56.0861 58.295 56.1603 58.0976 56.1762" fill="#2F7253"/>
<path d="M47.2688 43.1528C47.3264 43.3588 47.3293 43.5761 47.2772 43.7835C47.2251 43.9909 47.1198 44.1814 46.9714 44.3364C46.6631 44.7006 46.318 44.9811 46.0097 45.3416C45.974 45.3898 45.929 45.4304 45.8774 45.461C45.8257 45.4917 45.7683 45.5117 45.7087 45.5201C45.147 46.0008 44.468 45.6148 44.2624 44.9592C44.2206 44.7765 44.2299 44.5859 44.2895 44.4081C44.349 44.2303 44.4564 44.072 44.6001 43.9504C44.8901 43.67 45.1581 43.4187 45.4187 43.1128C45.8408 42.5119 46.9678 42.2715 47.2541 43.1528" fill="#2F7253"/>
<path d="M51.4792 45.724C51.046 46.172 50.1797 46.7802 49.5079 46.4961C48.7261 46.1683 48.7151 45.3416 49.273 44.8063C49.5657 44.5654 49.8803 44.352 50.2127 44.1689C50.5259 43.911 50.9261 43.7808 51.3323 43.8047C52.206 44.0232 51.9086 45.2069 51.4792 45.7058" fill="#2F7253"/>
<path d="M57.022 45.6876C56.9925 46.1303 56.8036 46.5478 56.4898 46.8639L56.4641 46.8931L56.442 46.9186C56.1542 47.1887 55.8515 47.4428 55.5354 47.6797C55.417 47.755 55.2777 47.7913 55.1373 47.7834C54.9969 47.7756 54.8626 47.724 54.7535 47.636L54.7241 47.6142C54.5735 47.567 54.4453 47.4671 54.3636 47.3331C54.2819 47.199 54.2521 47.04 54.2799 46.8858C54.313 46.3431 54.7278 45.9753 55.0141 45.5383C55.3004 45.1012 55.6271 44.7189 56.1484 44.7298C56.2689 44.7325 56.3876 44.7592 56.4976 44.8083C56.6076 44.8573 56.7065 44.9277 56.7886 45.0152C56.8707 45.1028 56.9343 45.2058 56.9757 45.3182C57.017 45.4305 57.0353 45.5499 57.0294 45.6694" fill="#2F7253"/>
<path d="M40.2649 38.4439C40.342 38.5651 40.3721 38.7101 40.3493 38.8517V38.9027C40.4198 38.9517 40.4788 39.0151 40.5225 39.0887C40.5662 39.1622 40.5935 39.2442 40.6026 39.3291C40.6116 39.414 40.6022 39.4999 40.575 39.5809C40.5477 39.6619 40.5033 39.7361 40.4447 39.7986C40.2543 40.1412 40.0158 40.4551 39.7363 40.731C39.4691 40.9249 39.1575 41.0501 38.8296 41.0951C38.6411 41.1543 38.4375 41.145 38.2553 41.0689C38.0731 40.9929 37.924 40.855 37.8348 40.68C37.7718 40.5004 37.75 40.3091 37.771 40.1201C37.7919 39.9311 37.8551 39.7491 37.9559 39.5874C38.1466 39.2305 38.3835 38.8999 38.6607 38.6041C38.818 38.3632 39.0373 38.1684 39.2958 38.0396C39.4776 37.9948 39.669 38.0084 39.8425 38.0784C40.016 38.1484 40.1626 38.2713 40.2612 38.4293" fill="#2F7253"/>
<path d="M64.9509 61.3004C65.0174 61.4676 65.0218 61.6528 64.9633 61.823C64.9048 61.9931 64.7872 62.137 64.6316 62.2291C64.3337 62.4379 64.0166 62.6184 63.6845 62.7681C63.3966 62.9313 63.0584 62.9844 62.7338 62.9174C62.5386 62.8939 62.3545 62.8151 62.2034 62.6903C62.0524 62.5654 61.9409 62.4 61.8823 62.2138C61.8238 62.0276 61.8207 61.8287 61.8734 61.6408C61.9261 61.4529 62.0324 61.2841 62.1795 61.1547C62.4427 60.9282 62.7496 60.7571 63.0815 60.6519C63.4135 60.5468 63.7635 60.5096 64.1103 60.5429C64.305 60.5864 64.4849 60.6795 64.6323 60.8129C64.7797 60.9464 64.8895 61.1157 64.9509 61.304" fill="#2F7253"/>
<path d="M31.7744 32.6642C31.8131 32.7488 31.8331 32.8407 31.8331 32.9337C31.8331 33.0266 31.8131 33.1185 31.7744 33.2032C31.4293 33.7749 30.9741 34.6344 30.1812 34.4888C29.9789 34.4544 29.7955 34.3498 29.6637 34.1938C29.5785 34.0531 29.5142 33.901 29.4728 33.7422C29.4728 33.7932 29.381 33.5674 29.3516 33.5455C29.3201 33.4454 29.3126 33.3394 29.3296 33.2359C29.3561 33.0791 29.4055 32.927 29.4765 32.7843C29.7261 32.3291 30.295 31.6117 30.9448 31.6663C31.1862 31.6947 31.4074 31.8141 31.5625 31.9999C31.7176 32.1857 31.7948 32.4235 31.778 32.6642" fill="#2F7253"/>
<path d="M45.8849 39.7732C45.8926 39.9394 45.8504 40.1041 45.7637 40.2466C45.3343 40.7419 44.9415 41.3683 44.1743 41.1935C43.9995 41.167 43.8354 41.0933 43.7001 40.9803C43.5648 40.8674 43.4635 40.7196 43.4073 40.5532C43.3512 40.3868 43.3423 40.2083 43.3818 40.0373C43.4213 39.8663 43.5075 39.7093 43.631 39.5838C43.9981 39.1395 44.5083 38.4584 45.1397 38.564C45.2711 38.5899 45.3956 38.6428 45.5052 38.7191C45.6148 38.7955 45.7071 38.8938 45.7762 39.0076C45.8453 39.1214 45.8897 39.2483 45.9065 39.3801C45.9233 39.512 45.9122 39.6458 45.8739 39.7732" fill="#2F7253"/>
<path d="M64.1103 57.1814C64.0846 57.2106 64.092 57.2615 64.0663 57.287C64.0279 57.3794 63.9718 57.4635 63.9011 57.5347L63.6625 57.8115C63.5232 57.9806 63.371 58.1389 63.2073 58.2849C63.0883 58.3668 62.953 58.4227 62.8106 58.4487C62.6681 58.4747 62.5217 58.4704 62.3811 58.4359C62.2404 58.4015 62.1088 58.3377 61.9949 58.2489C61.881 58.1601 61.7875 58.0482 61.7206 57.9207C61.2801 57.2579 61.8968 56.8282 62.3336 56.4276C62.4434 56.264 62.5828 56.122 62.7448 56.0087C62.8913 55.9166 63.0632 55.8723 63.2363 55.8821C63.4095 55.8919 63.5752 55.9553 63.7102 56.0634C63.7636 56.1003 63.8046 56.1523 63.8277 56.2127C63.9177 56.2483 63.9984 56.3038 64.0636 56.3749C64.1289 56.446 64.1769 56.531 64.2042 56.6233C64.2314 56.7156 64.2371 56.8128 64.2208 56.9076C64.2046 57.0024 64.1668 57.0923 64.1103 57.1705" fill="#2F7253"/>
<path d="M51.3617 38.8627C51.4414 39.0402 51.4569 39.2396 51.4057 39.4272C51.4498 39.5318 51.4675 39.6456 51.4571 39.7586C51.4113 40.1033 51.2541 40.424 51.0093 40.6727C50.745 40.975 50.5101 41.3028 50.0365 41.2372C49.8644 41.2181 49.6995 41.1581 49.5557 41.0624C49.4118 40.9667 49.2933 40.838 49.2102 40.6873C49.127 40.5366 49.0817 40.3682 49.0779 40.1964C49.0741 40.0246 49.1121 39.8545 49.1886 39.7003C49.3657 39.3917 49.5593 39.0926 49.7686 38.8044C49.8396 38.6811 49.9356 38.5737 50.0506 38.4891C50.1656 38.4045 50.2971 38.3444 50.4366 38.3128C50.6304 38.2905 50.8261 38.3323 50.9934 38.4317C51.1607 38.5312 51.2901 38.6827 51.3617 38.8627Z" fill="#2F7253"/>
<path d="M56.9596 40.2174C56.5338 40.7674 56.0125 41.7616 55.1242 41.3391C54.9485 41.2521 54.8004 41.1187 54.6961 40.9536C54.5918 40.7884 54.5355 40.598 54.5332 40.4032C54.5332 39.9625 54.8672 39.6748 55.1536 39.347C55.5867 38.9027 56.097 38.0869 56.8018 38.4475C57.5065 38.808 57.3707 39.7476 56.9633 40.2174" fill="#2F7253"/>
</g>
<defs>
<clipPath id="clip0_0_130">
<rect width="76" height="79" fill="white" transform="matrix(1 0 0 -1 0 79)"/>
</clipPath>
</defs>
</svg>
