<svg width="68" height="19" viewBox="0 0 68 19" fill="none" xmlns="http://www.w3.org/2000/svg">
<g clip-path="url(#clip0_18_551)">
<path d="M65.0365 9.46102C64.9865 8.91153 64.6701 8.34539 63.9708 8.34539C63.7044 8.34539 63.5379 8.34539 63.0217 8.34539C62.6553 8.34539 62.339 8.34539 62.0392 8.34539C61.4065 8.34539 60.9902 8.67841 60.9902 9.44437C60.9902 9.47767 61.0402 10.5267 61.0402 10.9763V12.5915C61.0402 13.2575 61.0069 13.7903 60.9403 14.19C60.8737 14.5896 60.7404 14.906 60.5573 15.1224C60.3741 15.3389 60.1244 15.4721 59.808 15.5554C59.4916 15.6386 59.092 15.6719 58.6091 15.6719C58.1262 15.6719 57.7099 15.6386 57.4102 15.5554C57.0938 15.4721 56.8441 15.3389 56.6609 15.1224C56.4777 14.906 56.3445 14.6063 56.2613 14.19C56.178 13.7737 56.1447 13.2575 56.1447 12.5915V10.9763C56.1447 10.3102 56.178 9.79405 56.2613 9.39442C56.3445 8.99479 56.4611 8.69506 56.6609 8.4786C56.8441 8.26213 57.0938 8.12892 57.4102 8.04567C57.5601 8.01236 57.7099 7.97906 57.8931 7.96241C58.1096 7.94576 58.3427 7.92911 58.6091 7.92911C58.9255 7.92911 59.5083 7.97906 59.6748 7.99571C59.758 7.99571 59.8413 8.01236 59.9079 7.99571C60.4074 7.96241 60.7571 7.7959 60.7571 7.22975C60.7571 6.94668 60.7571 6.79682 60.7571 6.44715C60.7571 6.09747 60.7571 5.79775 60.7571 5.51468C60.7571 5.14835 60.5739 4.91523 60.1743 4.86528C60.1577 4.86528 60.1244 4.86528 60.0577 4.84863C59.8246 4.81532 59.1586 4.74872 58.6091 4.74872C58.5092 4.74872 58.4259 4.74872 58.326 4.74872C57.2603 4.76537 56.3445 4.86528 55.5952 5.04844C54.7627 5.24826 54.0966 5.59793 53.5638 6.08082C53.0476 6.5637 52.6646 7.22975 52.4148 8.02901C52.1817 8.84493 52.0652 9.86065 52.0652 11.0762V12.4915C52.0652 13.6904 52.1817 14.6895 52.4148 15.5054C52.6479 16.3213 53.0309 16.9707 53.5638 17.4536C54.08 17.9365 54.7627 18.3028 55.5952 18.5026C56.4278 18.7191 57.4269 18.819 58.6091 18.819C59.7913 18.819 60.7904 18.7191 61.623 18.5026C62.4555 18.2862 63.1216 17.9365 63.6378 17.4536C64.154 16.9707 64.5369 16.3047 64.77 15.5054C65.0032 14.6895 65.1197 13.6904 65.1197 12.4915V11.0928C65.1197 10.5101 65.0864 9.97721 65.0365 9.46102Z" fill="#545454"/>
<path d="M59.1919 9.22798C59.0421 9.17803 58.8423 9.16138 58.5925 9.16138C58.3427 9.16138 58.1596 9.17803 57.993 9.22798C57.8432 9.27794 57.71 9.36119 57.6267 9.47775C57.5268 9.59431 57.4769 9.77747 57.4269 10.0106C57.3936 10.2437 57.377 10.9764 57.377 11.3593V12.3085C57.377 12.6914 57.3936 13.3242 57.4269 13.5573C57.4602 13.7904 57.5268 13.9736 57.6267 14.0901C57.7266 14.2067 57.8432 14.29 57.993 14.3399C58.1429 14.3899 58.3427 14.4065 58.5925 14.4065C58.8423 14.4065 59.0254 14.3899 59.1919 14.3399C59.3418 14.29 59.475 14.2067 59.5583 14.0901C59.6582 13.9736 59.7081 13.7904 59.7414 13.5573C59.7747 13.3242 59.7914 12.6914 59.7914 12.3085V11.3593C59.7914 10.9764 59.7747 10.2437 59.7414 10.0106C59.7081 9.77747 59.6415 9.59431 59.5583 9.47775C59.475 9.36119 59.3418 9.27794 59.1919 9.22798Z" fill="#DF1C46"/>
<path d="M18.413 13.3408C18.2965 13.3408 18.2299 13.4407 18.2299 13.5406C18.2299 13.857 18.2798 14.0235 18.3131 14.19C18.413 14.6895 18.5296 14.9559 18.7627 15.2057C18.9459 15.3889 19.2123 15.4888 19.5286 15.5554C19.845 15.622 20.2613 15.6386 20.7442 15.6386C21.4435 15.6386 22.1928 15.6386 22.9921 15.6386C23.7414 15.6386 24.574 15.6386 25.5064 15.622C25.6064 15.622 25.7063 15.7052 25.7063 15.8051L25.6896 18.5859C25.6896 18.6858 25.6064 18.7691 25.5064 18.7691C24.6572 18.8024 23.4417 18.819 22.7756 18.819C22.043 18.819 21.2604 18.819 20.3945 18.819C19.1956 18.819 18.1965 18.7025 17.3973 18.4527C16.598 18.2029 15.9653 17.8366 15.499 17.3371C15.0328 16.8375 14.6831 16.2048 14.5 15.4555C14.3002 14.7062 14.2002 13.4906 14.2002 12.4749V11.0762C14.2002 10.0105 14.3002 9.07804 14.5166 8.29543C14.7331 7.51283 15.0828 6.84678 15.5823 6.33059C16.0818 5.8144 16.7312 5.41477 17.5305 5.14835C18.3298 4.88193 19.3288 4.74872 20.5111 4.74872C22.6424 4.74872 24.1577 5.1983 25.0735 6.08082C25.9893 6.96333 26.4389 8.21218 26.4389 9.79405V10.5101C26.4389 11.0762 26.4056 11.5258 26.339 11.8755C26.2724 12.2251 26.1558 12.5249 25.9727 12.7413C25.7895 12.9578 25.5564 13.1076 25.2733 13.1909C24.9903 13.2742 24.6239 13.3241 24.2076 13.3241L18.413 13.3408ZM20.3945 7.94576C19.9449 7.94576 19.562 7.97906 19.2955 8.06232C19.0125 8.14557 18.796 8.27878 18.6295 8.46195C18.463 8.66176 18.3631 8.92818 18.2965 9.26121C18.2632 9.39442 18.2299 9.61088 18.2132 9.97721C18.2132 10.0771 18.2965 10.1604 18.3964 10.1604H22.4093C22.5092 10.1604 22.6091 10.0771 22.5925 9.97721C22.5592 9.64419 22.5425 9.44437 22.5092 9.26121C22.4426 8.92818 22.3427 8.66176 22.1595 8.46195C21.993 8.26213 21.7599 8.12892 21.4935 8.06232C21.2271 7.97906 20.8607 7.94576 20.3945 7.94576Z" fill="#545454"/>
<path d="M31.6674 18.8023H28.104C27.9708 18.8023 27.8709 18.7024 27.8709 18.5691V9.76063C27.8709 8.81151 27.9875 8.01225 28.2206 7.3795C28.4537 6.73011 28.8201 6.21392 29.3029 5.83094C29.7858 5.44796 30.3853 5.16489 31.1013 4.99838C31.8173 4.83186 32.6498 4.76526 33.599 4.76526C34.0819 4.76526 34.5647 4.76526 35.031 4.76526C35.4306 4.76526 35.8968 4.78191 36.413 4.79856C36.5462 4.79856 36.6462 4.91512 36.6462 5.03168V7.72918C36.6462 7.86239 36.5462 7.94565 36.413 7.94565C36.0301 7.94565 35.5472 7.94565 35.1975 7.94565C34.7479 7.94565 34.3982 7.94565 33.9986 7.94565C33.549 7.94565 33.166 7.9623 32.8996 8.06221C32.6165 8.14546 32.4001 8.32863 32.2502 8.49514C32.1004 8.66165 32.0004 8.84481 31.9505 9.11123C31.9005 9.39431 31.8839 9.82724 31.8839 10.1936V18.5691C31.9005 18.6857 31.8006 18.8023 31.6674 18.8023Z" fill="#545454"/>
<path d="M38.3279 18.8023C38.1947 18.8023 38.0948 18.7024 38.0948 18.5691V9.76063C38.0948 8.82816 38.2113 8.04555 38.4444 7.41281C38.6776 6.78006 39.0439 6.26387 39.5434 5.86424C40.043 5.46461 40.6924 5.18154 41.4916 5.01503C42.2909 4.84852 43.24 4.76526 44.3557 4.76526C45.4713 4.76526 46.4204 4.84852 47.2197 5.01503C48.0189 5.18154 48.6683 5.46461 49.1679 5.86424C49.6674 6.26387 50.0338 6.78006 50.2669 7.41281C50.5 8.04555 50.6165 8.82816 50.6165 9.76063V18.5691C50.6165 18.7024 50.5166 18.8023 50.3834 18.8023H46.8201C46.6868 18.8023 46.5869 18.7024 46.5869 18.5691V9.9771C46.5869 9.62742 46.5536 9.31105 46.5037 9.06128C46.4537 8.81151 46.3538 8.59505 46.204 8.42853C46.0541 8.26202 45.821 8.12881 45.5379 8.06221C45.2382 7.97895 44.8552 7.94565 44.3557 7.94565C43.8728 7.94565 43.4731 7.97895 43.1734 8.06221C42.8737 8.14546 42.6572 8.26202 42.5074 8.42853C42.3575 8.59505 42.2576 8.81151 42.2076 9.06128C42.1577 9.31105 42.1244 9.62742 42.1244 9.9771V18.5691C42.1244 18.7024 42.0245 18.8023 41.8913 18.8023H38.3279Z" fill="#545454"/>
<path d="M5.44167 9.92727L10.1207 4.83199C10.1706 4.78204 10.2372 4.74874 10.3038 4.74874H14.3168C14.5166 4.74874 14.6332 4.99851 14.4833 5.14837L8.58876 11.5424C8.5055 11.6257 8.5055 11.7589 8.57211 11.8588L14.6665 18.4028C14.7997 18.5526 14.6831 18.7857 14.4833 18.7857L10.4703 18.8024C10.4037 18.8024 10.3371 18.7691 10.2872 18.7191L5.45832 13.4906C5.32511 13.3241 5.04204 13.424 5.04204 13.6405V18.5859C5.04204 18.7025 4.94213 18.8024 4.82558 18.8024H1.21225C1.0957 18.8024 0.995789 18.7025 0.995789 18.5859V1.05216C0.995789 0.935601 1.0957 0.835693 1.21225 0.835693H4.82558C4.94213 0.835693 5.04204 0.935601 5.04204 1.05216V9.77741C5.02539 9.99388 5.29181 10.0938 5.44167 9.92727Z" fill="#545454"/>
<path d="M65.2197 2.08447H63.771C62.7886 2.08447 61.9893 2.88373 61.9893 3.86616V7.07985C61.9893 7.0965 62.006 7.11315 62.0226 7.11315H65.2363C66.2187 7.11315 67.018 6.31389 67.018 5.33147V3.88281C67.018 2.88373 66.2187 2.08447 65.2197 2.08447ZM65.4694 4.86523C65.4694 5.24821 65.1697 5.54793 64.7867 5.54793H63.5545C63.5545 5.54793 63.5379 5.54793 63.5379 5.53128V4.29909C63.5379 3.91611 63.8376 3.61639 64.2206 3.61639H64.7701C65.1531 3.61639 65.4528 3.91611 65.4528 4.29909V4.86523H65.4694Z" fill="#DF1C46"/>
</g>
<defs>
<clipPath id="clip0_18_551">
<rect width="66.0222" height="18" fill="white" transform="translate(0.995789 0.835693)"/>
</clipPath>
</defs>
</svg>
