<svg width="200" height="73" viewBox="0 0 200 73" fill="none" xmlns="http://www.w3.org/2000/svg">
<g clip-path="url(#clip0_18_526)">
<path d="M124.287 15.7015C124.971 16.5967 124.947 17.8439 124.241 18.7162L123.565 19.5425C123.258 19.795 123.188 20.2311 123.404 20.5602C124.272 21.8685 125.032 23.2535 125.677 24.7225C126.276 26.0921 125.608 27.6913 124.187 28.2192C122.874 28.7089 121.406 28.0279 120.846 26.7502C117.228 18.5708 109.109 13.2989 100.129 13.3219C95.4281 13.3295 90.9191 14.768 87.1015 17.469C83.3607 20.1164 80.557 23.7738 78.9746 28.0433C78.5906 29.0838 77.6151 29.7342 76.5627 29.7495C76.2324 29.7572 75.8944 29.696 75.5641 29.5735C74.2122 29.0532 73.5823 27.5077 74.0816 26.1533C74.3735 25.3576 74.7115 24.5848 75.0725 23.835C75.2415 23.483 75.1186 23.0622 74.7806 22.8556L72.8219 20.6673C72.2996 20.0858 72.2151 19.2288 72.6145 18.5555C73.0216 17.8745 73.8281 17.5378 74.5963 17.7215L77.6074 18.4484C78.0606 18.5172 78.3678 18.5784 78.6059 18.2877C79.8964 16.7115 81.3635 15.2807 82.992 14.0105C83.3146 13.758 83.3837 13.2989 83.1456 12.9623L81.763 10.1925C81.2867 9.23602 81.5786 8.08066 82.4543 7.46854C83.3377 6.84878 84.5436 6.9712 85.281 7.7593L87.693 10.3302C87.908 10.6286 88.2998 10.7434 88.6378 10.5903C90.5658 9.71807 92.5783 9.06769 94.6599 8.65452C95.044 8.578 95.3052 8.22604 95.2745 7.84346L95.1669 2.92359C95.1746 1.83709 95.9965 0.926567 97.0796 0.804144L97.1333 0.796493C98.3009 0.666418 99.3686 1.44686 99.5837 2.58693C99.9217 4.38502 100.505 7.43029 100.505 7.43029C100.536 7.82051 100.851 8.12657 101.243 8.14187C103.862 8.24134 106.412 8.70808 108.832 9.49617C109.162 9.60329 109.523 9.47322 109.715 9.17481L112.312 5.80818C113.034 4.95887 114.27 4.77524 115.215 5.3797C116.191 5.99947 116.521 7.43029 115.983 8.45558L114.616 11.2331C114.386 11.5927 114.493 12.0747 114.854 12.2966C116.383 13.2377 117.812 14.3319 119.133 15.5561C119.417 15.8163 119.847 15.8316 120.147 15.5867L121.168 15.0435C122.244 14.462 123.565 14.7451 124.287 15.7015Z" fill="#F7AB29"/>
<path d="M190.723 54.8463C191.89 52.0994 190.277 50.1024 187.32 52.2983C184.547 54.3566 182.135 54.4866 182.135 54.4866C180.438 54.808 178.317 54.5325 176.451 53.5302C174.938 52.7192 173.701 51.1506 172.979 49.1153C172.979 49.1153 172.979 49.1153 172.979 49.1077C172.917 48.9394 173.048 48.7557 173.232 48.7557C174.4 48.7481 175.537 48.6486 176.651 48.5568C177.096 48.5185 177.542 48.4803 177.995 48.4497C183.548 48.0594 187.266 46.1848 189.056 42.8871C190.162 40.8518 190.201 38.5717 189.171 36.4599C187.996 34.065 185.615 32.2975 182.942 31.846C178.563 31.1039 172.272 32.6418 167.149 44.1572C167.087 44.2873 167.049 44.4174 167.011 44.5551C166.987 44.6086 166.964 44.6622 166.941 44.7158C165.62 48.2201 164.261 51.8392 161.749 54.3642C160.627 55.4966 158.953 56.3842 157.923 55.9098C157.731 55.818 157.547 55.6726 157.378 55.4737C156.994 55.0299 156.794 54.4025 156.833 53.7444L158.031 31.188C158.054 30.8207 158.369 30.53 158.745 30.553C160.358 30.6524 162.079 30.7519 164.13 30.8361C164.138 30.8361 164.138 30.8361 164.145 30.8361C165.628 30.8896 166.872 29.696 166.865 28.1963C166.849 26.7961 165.682 25.6637 164.276 25.6101C162.724 25.5489 161.365 25.4724 160.09 25.3959C159.752 25.3729 159.544 25.021 159.683 24.7073C160.036 23.9268 160.328 23.0775 160.535 22.167C160.858 20.7591 159.982 19.3589 158.569 19.0375C157.155 18.7162 155.75 19.5884 155.427 20.9963C155.005 22.8097 154.16 24.1181 153.161 24.5007C152.285 24.8373 150.872 24.8144 149.505 24.7914C148.514 24.7761 147.492 24.7608 146.494 24.8603C145.126 25.0057 144.043 26.1534 144.074 27.5306C144.112 28.9538 145.272 30.0786 146.701 30.0786C148.66 30.0786 150.311 30.1092 151.817 30.1627C152.37 30.1857 152.8 30.6524 152.769 31.2033L151.586 53.4537C151.479 55.4737 152.124 57.3942 153.399 58.8633C154.06 59.6284 154.828 60.2176 155.696 60.6231C156.502 60.998 157.378 61.1969 158.277 61.2352C160.696 61.3194 163.323 60.1946 165.474 58.0216C166.957 56.5296 168.101 54.8386 169.038 53.0788C170.244 55.2747 171.942 57.0193 173.962 58.0981C175.69 59.0239 177.603 59.5289 179.608 59.5978C181.259 59.659 182.98 59.4218 184.724 58.9015C185.446 58.6873 186.168 58.4271 186.89 58.1058C188.856 57.2947 190.185 56.1087 190.723 54.8463ZM173.87 43.5298C173.616 43.5374 173.455 43.2696 173.586 43.0477C174.454 41.5557 175.352 40.3238 176.29 39.3521C178.394 37.1791 180.207 36.8883 181.282 36.9266C181.62 36.9419 181.882 36.9802 182.058 37.0108C183.042 37.1791 184.025 37.8983 184.447 38.7629C184.731 39.3368 184.724 39.8801 184.439 40.4157C183.556 42.0378 181.267 42.9865 177.618 43.2467C177.142 43.2773 176.674 43.3232 176.197 43.3615C175.383 43.4303 174.615 43.4992 173.87 43.5298Z" fill="#19411D"/>
<path d="M144.957 32.7182C143.075 32.8713 143.36 35.8324 143.36 35.8324L143.168 46.2613C143.152 46.598 142.722 46.7433 142.507 46.4832L132.944 34.7535C132.322 33.9731 131.323 33.5599 130.347 33.7435C129.149 33.9731 128.281 34.9907 128.22 36.1767L128.12 55.0834C128.12 55.1523 128.112 55.2211 128.12 55.29C128.135 55.9633 127.605 56.5219 126.929 56.5448C126.491 56.5601 126.192 56.3382 126.054 56.2158C125.915 56.0857 125.685 55.8026 125.67 55.3665L125.447 47.4014C125.454 46.4908 125.393 39.375 120.761 35.358C119.225 34.0266 117.412 33.2003 115.338 32.8636C114.286 32.6953 113.218 32.7259 112.181 32.9784C111.39 33.1773 110.545 33.5216 110.122 34.1338C109.208 35.4651 109.377 37.9901 112.926 37.9289C114.747 37.8983 116.191 38.3268 117.297 39.2832C117.619 39.5586 117.911 39.88 118.165 40.2243C118.464 40.6298 118.134 41.196 117.635 41.1119C116.936 40.9971 116.214 40.9588 115.469 41.0201C111.136 41.3567 107.618 44.7922 107.211 49.1C106.72 54.2723 110.706 58.7331 115.845 58.9168C117.281 58.9703 118.656 58.6796 119.878 58.121C120.4 57.8838 120.999 58.0904 121.291 58.5801C121.598 59.1004 121.982 59.5901 122.436 60.0186C123.588 61.1051 125.07 61.7172 126.637 61.7784C126.776 61.7861 126.914 61.7861 127.06 61.7784C130.586 61.6789 133.389 58.7714 133.351 55.2747L133.873 44.9299C133.889 44.6392 134.257 44.5244 134.442 44.754L143.867 56.6213C144.612 57.5625 145.91 57.8838 147.031 57.3712C147.945 56.9504 148.514 56.0245 148.552 55.0222L148.506 38.1814C148.629 33.2462 146.839 32.5652 144.957 32.7182ZM116.052 53.6908C113.986 53.6143 111.966 51.8698 112.043 49.8116C112.12 47.7533 114.278 45.565 116.344 45.6339C118.411 45.7104 120.27 48.0441 120.193 50.1023C120.116 52.1529 118.119 53.7597 116.052 53.6908Z" fill="#19411D"/>
<path d="M113.449 61.587C112.496 61.434 111.697 61.1815 111.06 60.8984C109.654 60.2786 108.978 59.5441 108.978 59.5441C108.425 59.0621 107.711 58.3275 106.812 57.1951C105.644 55.7184 104.584 54.058 103.678 52.2676L102.126 49.207C105.406 47.0723 107.073 43.1318 106.082 39.7728C105.214 36.8193 102.51 34.5545 99.0076 33.8506C96.6264 33.3762 94.8751 33.2461 90.6273 33.2232H90.6196H90.6119C90.5966 33.2232 90.5812 33.2232 90.5658 33.2232H90.5505C89.1064 33.2232 88.8836 34.3862 88.8759 35.8247C88.8759 35.9241 88.8836 36.0236 88.8913 36.1231C88.922 36.3526 88.9374 36.5821 88.9374 36.8117V55.3588C88.9374 55.4659 88.9451 55.573 88.9604 55.6801C89.0296 56.2616 88.8836 56.8431 88.5764 57.264C88.2845 57.6618 87.8697 58.0062 86.7866 57.8684C86.6176 57.8455 86.5101 57.8072 86.3641 57.6159C85.4885 56.4835 85.4501 53.3388 85.6959 51.579C85.7035 51.5024 85.7112 51.4183 85.7189 51.3418L86.1337 43.1471C86.1875 42.4814 86.3334 38.7628 83.7755 36.1307C82.6233 34.9447 80.4879 33.5751 76.847 33.7817C75.7024 33.8506 74.6194 34.0342 73.6054 34.3479C72.2766 34.7611 71.0552 35.5033 70.1181 36.5286C69.3423 37.3779 68.651 38.5027 68.9813 39.5892C69.6419 41.7622 71.7158 41.6244 72.8987 40.6068C74.0049 39.658 75.4182 39.0995 77.1388 39C78.46 38.9235 79.4125 39.176 79.9809 39.7498L79.9886 39.7575C80.4802 40.2548 80.4418 41.0276 79.8888 41.4638C79.2435 41.9688 78.3832 42.4661 77.3155 42.9328C76.6472 43.2236 75.9559 43.4914 75.2185 43.7821C73.8666 44.3024 72.4686 44.8457 71.1244 45.5955C69.396 46.552 68.0518 47.7303 67.1454 49.054C66.8612 49.4748 66.2467 49.4825 65.9394 49.0769C65.54 48.549 65.1406 47.9981 64.7335 47.4089C61.7762 43.1241 60.5087 36.8346 60.4857 36.7887C60.0939 35.9241 59.2644 35.3426 58.3196 35.2661C57.3748 35.1896 56.4607 35.6257 55.9307 36.4062L48.8331 47.6844C48.6718 47.9292 48.3184 47.9369 48.1341 47.7073L40.2453 37.6304C39.7 36.9494 38.8858 36.6128 38.0792 36.651C36.7811 36.5898 35.6058 37.4927 35.3754 38.8011L32.9865 55.8255C32.9711 55.902 32.9634 55.9785 32.9558 56.055C32.8943 56.759 32.3259 57.3405 31.6192 57.3558C30.9432 57.3634 30.3671 56.8891 30.2519 56.2234C29.599 52.2829 29.3148 48.9545 29.0383 45.7409C28.7157 41.9611 28.3854 38.0512 27.4559 33.2538C27.0718 31.2797 26.5495 27.7677 23.0238 27.301C21.0343 27.0332 19.7208 29.4663 18.7222 31.9301C18.415 32.6799 18.0002 33.4451 17.6468 34.455C17.2858 35.4727 16.9325 36.498 16.5714 37.5233C15.8878 39.4667 15.2119 41.4178 14.5052 43.3766C14.3208 43.9046 13.7754 44.2183 13.2224 44.1265C10.6875 43.7133 8.3985 43.4455 5.97888 43.6521C5.97888 43.6521 3.4594 43.9887 3.61302 46.0776C3.68216 47.057 4.62696 48.021 5.61785 48.4648C6.6702 48.9392 7.8224 48.8627 8.98228 48.8627C10.0807 48.855 10.6261 48.9086 11.7706 49.1458C12.0625 49.207 12.2315 49.4901 12.1316 49.7732C10.603 54.1651 9.182 57.5777 7.68414 60.5617C7.68414 60.5617 7.66109 60.6153 7.60732 60.7071C7.20021 61.4952 5.12625 65.3515 2.29951 67.7005C-0.127791 69.7205 -0.243011 71.312 0.287002 72.1078C0.44831 72.3526 0.663388 72.5209 0.901509 72.5974C1.90008 72.9571 5.15697 73.4315 9.92709 67.2797C13.8062 60.9367 14.2978 58.7407 17.2705 51.0281C20.5197 52.6655 23.3464 55.1369 25.2744 58.2051C25.3359 58.3046 25.4127 58.404 25.4818 58.4959C27.141 61.2351 28.8386 63.7524 31.5654 63.431C35.7287 62.9413 37.8565 59.9879 38.1791 56.6366L39.9611 46.6667C40.0072 46.4066 40.3375 46.3224 40.4988 46.529L46.6439 54.2264C47.1662 54.8767 47.9651 55.244 48.8024 55.2134C49.6396 55.1828 50.4078 54.7543 50.8763 54.0657L56.6527 45.542C56.8447 45.2589 57.2672 45.2742 57.4362 45.5726C58.2581 47.0187 59.2567 48.6638 60.4012 50.3241C63.6197 55.0068 66.8074 58.0827 69.9184 59.5364C70.0643 59.613 70.2103 59.6818 70.3562 59.7507C71.5468 60.2863 72.9064 60.5617 74.3198 60.5617C75.5795 60.5617 76.8854 60.3475 78.1681 59.919C79.2051 59.5671 80.173 59.1003 81.064 58.5877C81.3636 59.437 81.7477 60.1792 82.2316 60.8066C83.2225 62.092 84.5898 63.1938 86.1798 63.3851C86.5408 63.431 86.9018 63.454 87.2475 63.454C89.5519 63.454 91.5183 62.1762 92.8472 60.3628C93.9226 58.8937 94.0916 57.57 94.2145 55.1981V51.0204C94.2145 50.6455 94.5371 50.3547 94.9058 50.3853C95.0364 50.393 95.1593 50.4083 95.2899 50.4159C95.5433 50.4389 95.7968 50.4542 96.0503 50.4771C96.5957 50.5154 97.0873 50.8444 97.3331 51.3341L99.023 54.6548C100.006 56.5906 101.143 58.404 102.403 60.0414C102.41 60.0491 102.418 60.0567 102.426 60.0644C105.56 63.6912 108.179 65.0914 110.169 65.3515C114.032 65.8259 115.461 61.9084 113.449 61.587ZM23.4078 48.6944C22.1481 47.7609 20.7962 46.9422 19.3828 46.2536C19.2138 46.1694 19.1293 45.9705 19.1985 45.7945C19.9896 43.5985 20.7578 41.4102 21.5182 39.2219C21.8562 38.2502 22.1942 37.2861 22.5322 36.322C22.5859 36.3296 22.6013 36.3296 22.609 36.3296C22.609 36.3296 22.632 36.3296 22.6858 36.3373C23.2849 39.9105 23.5384 42.9634 23.815 46.1694C23.8764 46.8963 23.9379 47.6232 24.007 48.3654C24.03 48.6867 23.669 48.8857 23.4078 48.6944ZM80.4879 50.9668C80.4572 51.1964 80.4034 51.6937 80.365 52.3594C80.3496 52.6042 80.2268 52.8338 80.027 52.9792C78.9286 53.7749 77.7457 54.5171 76.4706 54.9456C75.81 55.1675 75.1417 55.2899 74.5118 55.3129C74.3428 55.2823 74.1738 55.2593 73.9972 55.2593C73.4672 55.2593 72.8987 55.1216 72.2919 54.8614C71.4009 54.3641 70.9938 53.4612 71.109 52.8261C71.2703 51.9539 72.2382 50.9515 73.6899 50.1481C74.7192 49.5743 75.8945 49.1228 77.1388 48.6408C77.8916 48.35 78.6751 48.044 79.4509 47.7073C79.4586 47.7073 79.4586 47.6997 79.4663 47.6997C80.027 47.4548 80.6492 47.8757 80.6185 48.4801L80.4879 50.9668ZM99.1766 44.8916C98.3778 45.3889 97.4944 45.3354 95.72 45.1824C95.4435 45.1594 95.1593 45.1364 94.8597 45.1135C94.4833 45.0829 94.1914 44.7692 94.1914 44.3943V39.2448C94.1914 38.8317 94.5448 38.5027 94.9596 38.5256C96.1194 38.6021 96.78 38.7322 97.9783 38.9694C99.4839 39.2754 100.751 40.2013 101.051 41.2342C101.389 42.3972 100.552 44.0423 99.1766 44.8916Z" fill="#19411D"/>
<path d="M197.536 34.7306C197.521 34.677 197.513 34.5929 197.505 34.4781L197.49 34.0573C197.482 33.8583 197.444 33.7206 197.375 33.6288C197.321 33.5676 197.26 33.5064 197.175 33.4605C197.283 33.3916 197.367 33.3074 197.429 33.208C197.513 33.0779 197.552 32.9172 197.552 32.7183C197.552 32.3357 197.398 32.0679 197.083 31.9302C196.922 31.8613 196.722 31.8231 196.476 31.8231H194.994V35.0673H195.531V33.7206H196.415C196.576 33.7206 196.691 33.7359 196.76 33.7742C196.883 33.8354 196.945 33.9502 196.952 34.1414L196.975 34.6617C196.983 34.7918 196.991 34.8683 196.998 34.9142C197.006 34.9601 197.022 35.0061 197.037 35.0367L197.052 35.0673H197.667V34.9066L197.636 34.8913C197.598 34.8683 197.559 34.8148 197.536 34.7306ZM197.014 32.7565C197.014 32.9478 196.968 33.0779 196.868 33.1391C196.768 33.2156 196.622 33.2462 196.438 33.2462H195.539V32.2821H196.492C196.622 32.2821 196.73 32.3051 196.806 32.3434C196.945 32.4275 197.014 32.5576 197.014 32.7565Z" fill="#19411D"/>
<path d="M196.23 30.2775C194.479 30.2775 193.05 31.7006 193.05 33.4452C193.05 35.1897 194.479 36.6129 196.23 36.6129C197.982 36.6129 199.41 35.1897 199.41 33.4452C199.403 31.693 197.982 30.2775 196.23 30.2775ZM196.23 36.0543C194.786 36.0543 193.611 34.8836 193.611 33.4452C193.611 32.0067 194.786 30.836 196.23 30.836C197.674 30.836 198.85 32.0067 198.85 33.4452C198.85 34.8836 197.674 36.0543 196.23 36.0543Z" fill="#19411D"/>
</g>
<defs>
<clipPath id="clip0_18_526">
<rect width="199.385" height="72" fill="white" transform="translate(0.0180664 0.765869)"/>
</clipPath>
</defs>
</svg>
