<svg width="217" height="221" viewBox="0 0 217 221" fill="none" xmlns="http://www.w3.org/2000/svg">
<g clip-path="url(#clip0_0_157)">
<path d="M27.7145 182.034L27.7782 182.103L27.7145 182.034Z" fill="white"/>
<path d="M211.109 92.8963C211.202 92.3621 211.202 91.8158 211.109 91.2816C211.015 91.8157 211.015 92.3622 211.109 92.8963Z" fill="white"/>
<path d="M107.175 5.07178L104.702 5.18481L103.396 5.22787H103.071H102.943L102.709 5.49699L100.507 5.87375L100.358 5.90067C99.7985 6.35279 99.1909 6.01908 98.642 6.30973C97.026 6.69304 95.364 6.83986 93.7067 6.7457C93.5575 6.65958 93.1417 7.4185 92.758 7.40774C92.225 7.31085 91.772 7.05788 91.3883 7.04173C89.1924 8.20433 86.9593 8.34966 84.6409 8.65645C83.7555 8.76145 82.8765 8.91598 82.008 9.11934C81.9282 9.13876 81.8498 9.16394 81.7735 9.19469C81.2086 9.9267 80.6063 9.59299 79.8229 9.60375L79.5777 9.65758C78.5259 9.88945 77.4557 10.0263 76.3799 10.0666L76.2413 10.0936H76.2147L75.3299 10.4003C74.701 10.6318 73.9815 10.8686 73.1021 11.1485C73.3473 10.9547 74.1681 10.6103 74.3013 10.5349C73.7683 10.6856 73.1501 10.9063 72.5585 11.0731L72.3986 11.127L72.2813 11.1539L71.5032 11.5629L71.386 11.6222C69.0729 12.8601 66.4933 14.0066 64.3135 15.3091L64.1749 15.3844L63.2262 15.8796L63.093 15.9442C63.0457 15.9756 62.9958 16.0026 62.9437 16.025C62.5653 16.1864 62.4108 16.8808 62.4108 16.8808C58.68 17.5912 56.1537 19.7496 52.86 21.4881C52.0534 21.9472 51.1918 22.2999 50.2964 22.5376L50.1365 22.6184C49.8953 23.0792 49.5434 23.4715 49.1132 23.7595L49.0013 23.8456L48.5269 24.19L47.5516 24.922C46.8801 25.4226 46.2138 25.9608 45.5743 26.4776L44.6576 27.258L44.487 27.3979L44.4177 27.5164C44.3493 27.5847 44.2743 27.646 44.1939 27.6994C43.4691 27.9685 42.6856 28.3237 42.3552 28.9319C41.3649 30.3467 40.2069 31.6337 38.9068 32.7642C38.5178 33.0871 38.134 33.4208 37.7556 33.7546L37.5691 33.9214C36.5458 34.8472 35.4799 35.6438 34.5258 36.548L34.3553 36.7095C32.9745 37.7875 31.7927 39.103 30.8643 40.5956L30.6831 40.7678C29.8459 41.3958 29.0582 42.0886 28.3274 42.84L28.2102 42.9531C27.7483 43.3657 27.2739 43.7694 26.7871 44.1641L26.6486 44.3094L25.3375 45.5904L23.8771 47.6788C23.3868 48.3947 22.9178 49.0782 22.4808 49.751C22.4541 49.751 22.3635 49.7941 22.3369 49.8425C22.2875 49.8811 22.2338 49.9136 22.177 49.9394C20.9995 51.9062 19.9543 53.9508 19.0484 56.0592L17.7693 58.928L16.2237 62.4158C15.856 63.2447 15.4882 64.0736 15.1578 64.8809C14.2837 65.4892 14.6248 66.6679 14.0172 67.4591C13.9906 67.5183 13.9639 67.5775 13.9426 67.6367C12.5142 70.8662 11.4536 73.2882 11.395 73.4389L10.8354 74.9891L10.3024 76.6038C9.94711 77.7018 9.60068 78.807 9.26313 79.9193C8.61291 82.153 8.02131 84.4298 7.50433 86.7388C6.45422 91.3998 5.71881 96.1275 5.30317 100.889C5.23922 101.567 5.18059 102.256 5.13795 102.924C3.38982 110.028 4.77553 117.171 4.91411 124.69C4.9747 123.129 4.7544 121.57 4.26388 120.088C4.55169 123.441 4.83949 126.789 6.39576 129.776L5.58565 129.33C9.31643 139.901 14.3157 150.106 17.0871 161.043L17.8919 162.55L18.4835 163.712C18.8299 164.38 19.0538 164.875 19.2776 165.327C19.7835 166.419 20.3438 167.484 20.9565 168.519C21.7764 169.864 22.7613 171.099 23.8878 172.195C23.6106 171.797 23.3122 171.399 23.051 170.984C22.6993 170.236 23.1896 170.882 23.9624 171.904C24.7352 172.927 25.8171 174.31 26.5313 175.134C26.3189 174.542 26.1409 173.938 25.9983 173.325C25.7998 172.781 25.561 172.252 25.2842 171.743C25.0699 171.309 24.8333 170.887 24.5753 170.478L24.2022 169.816C25.2682 171.345 26.3768 172.846 27.528 174.321C28.5157 175.57 29.5213 176.793 30.5446 177.992C30.3876 177.806 30.2086 177.639 30.0116 177.497L30.7524 178.299C31.0335 178.588 31.2952 178.895 31.5359 179.219C30.7737 178.46 29.7398 177.335 28.871 176.41C28.3327 175.777 27.756 175.178 27.1442 174.617C27.9089 175.439 28.621 176.309 29.2761 177.222C29.9533 178.16 30.719 179.029 31.5625 179.817C30.7962 179.385 30.1422 178.777 29.6545 178.04C31.2534 180.301 33.1988 182.298 33.8223 183.321C32.9026 182.196 31.8802 181.162 30.7684 180.231C31.4453 181.011 32.5112 182.185 33.5239 183.229C34.0568 183.767 34.5898 184.273 35.0268 184.688C35.4639 185.102 35.8902 185.452 36.1567 185.673C36.3593 186.093 36.6547 186.462 37.0201 186.749C37.5531 187.287 38.2353 187.885 38.8535 188.434C40.0101 189.424 40.9215 190.194 40.154 189.763C40.5057 190.005 41.044 190.431 41.641 190.904C42.4351 191.561 43.3358 192.304 43.9327 192.847C43.6982 192.917 40.4258 190.447 38.9761 189.413C32.6978 184.031 39.3119 189.279 37.9688 187.869L36.8176 186.792L35.6824 185.716C34.9149 184.994 34.1901 184.252 33.4492 183.504C33.849 184.009 31.4613 181.932 34.3553 184.844C31.9622 182.955 29.8293 180.752 28.013 178.293C27.4374 177.798 28.9776 179.601 29.4573 180.156C29.1588 179.93 28.2688 179.138 27.8904 178.885C27.512 178.632 27.5653 178.961 29.1429 180.823C28.514 180.091 31.0189 182.594 29.4253 180.597C29.7824 180.963 30.2621 181.523 30.7844 182.115C31.3067 182.707 31.8503 183.321 32.314 183.853C33.2307 184.898 33.753 185.581 32.847 184.876C33.7584 185.759 35.1068 186.975 36.4392 188.132C37.7716 189.29 39.104 190.361 39.8928 191.023C40.2233 191.561 38.5071 189.946 37.665 189.311C39.5038 190.883 41.3958 192.433 43.3092 193.881C42.8188 193.386 42.3125 192.907 41.8222 192.411C43.5749 193.928 45.4524 195.291 47.4343 196.486C49.1718 197.562 50.8667 198.461 52.7107 199.532C51.8577 199.285 51.0471 198.907 50.307 198.413C49.7741 198.079 49.1185 197.708 48.5003 197.336C47.882 196.965 47.2585 196.513 46.6509 196.179C47.2019 196.792 47.8712 197.285 48.6175 197.627C48.948 197.81 49.2251 197.95 49.7581 198.257C50.2911 198.563 50.92 198.94 51.8527 199.554C52.3163 199.925 52.3856 200.092 52.0978 200.017C53.1638 200.555 54.2297 201.061 55.2956 201.572C56.0205 202.024 55.7646 201.949 55.4608 201.814C57.9605 203.025 58.0084 202.891 58.2483 202.891C58.5566 202.953 58.8533 203.064 59.1277 203.219C59.7139 203.494 60.7266 203.978 62.56 204.834C61.4621 204.253 60.7266 203.865 60.0923 203.558C59.4581 203.252 59.0264 203.047 58.6107 202.875C57.4325 202.386 56.2924 201.808 55.1997 201.147C54.2563 200.426 55.301 200.937 56.756 201.637C57.4755 201.992 58.2909 202.38 59.0211 202.713C59.7512 203.047 60.3375 203.316 60.62 203.413C62.3575 204.35 63.2848 204.979 64.3508 205.566C65.6446 206.303 67.0044 206.916 68.412 207.396C67.9809 207.206 67.5217 207.09 67.0529 207.052C66.0478 206.773 65.077 206.382 64.1589 205.884C62.8531 205.383 63.1729 205.561 63.8711 205.948C64.5627 206.281 65.2353 206.653 65.8857 207.062C66.504 207.31 66.3334 207.116 66.4187 207.062C66.504 207.008 66.861 207.105 68.5506 207.837H68.3907L69.819 208.306C76.1614 208.742 81.4644 210.609 86.7141 212.811L88.4889 213.22L90.0185 213.607L89.2404 213.107C90.0772 213.268 91.0258 213.457 92.0118 213.575C92.9978 213.693 93.9732 213.844 94.9752 213.941C96.9525 214.172 98.7805 214.302 100.017 214.345C99.361 214.446 98.6949 214.464 98.0344 214.398C97.0644 214.361 95.8652 214.237 94.634 214.14C99.9351 214.861 105.302 214.948 110.623 214.398C107.564 214.215 107.122 214.215 104.227 213.979C105.065 213.875 105.91 213.83 106.754 213.844C107.442 213.834 108.131 213.861 108.816 213.925C110.623 214.085 112.442 214.055 114.242 213.833C114.413 214.194 112.643 214.237 113.991 214.522C116.123 214.135 119.769 213.817 122.194 213.225C122.897 213.322 122.652 213.505 121.586 213.801C120.855 213.985 120.115 214.133 119.369 214.242C118.42 214.377 117.275 214.549 115.921 214.657C115.436 214.657 114.855 214.657 114.37 214.7C113.885 214.743 113.304 214.743 112.803 214.781L109.674 214.964C108.64 215.017 107.622 215.05 106.663 215.05C105.759 215.055 104.855 215.006 103.956 214.904C104.633 215.012 105.309 215.087 105.997 215.179C101.893 215.217 99.4201 214.964 95.9132 214.77L96.0571 214.738L94.2237 214.878L96.1157 215.098C94.0597 215.136 92.0034 215.039 89.9599 214.808C90.5568 214.888 91.0258 214.98 91.5855 215.023C92.1451 215.066 92.6514 215.13 93.1364 215.157C93.8746 215.209 94.6154 215.209 95.3536 215.157C96.5581 215.125 97.3735 214.958 98.7752 214.926C101.403 215.141 103.226 215.389 104.846 215.55C106.438 215.746 108.046 215.766 109.642 215.61C109.936 215.771 112.91 215.862 110.533 216.099C109.056 216.25 107.82 216.18 106.871 216.202C105.922 216.223 105.331 216.202 105.187 216.331C106.743 216.363 107.217 216.395 107.905 216.411C108.241 216.411 108.635 216.444 109.237 216.411C109.84 216.379 110.655 216.374 111.838 216.325C112.718 215.954 116.219 215.47 119.518 214.781C121.266 214.474 123.249 214.162 125.146 213.801L126.559 213.521L127.886 213.268C128.781 213.08 129.554 212.956 130.236 212.821C126.82 213.645 123.393 214.512 124.304 214.598C125.629 214.242 126.975 213.973 128.334 213.79C129.655 213.575 130.588 213.37 130.039 213.252C132.027 212.821 134.724 212.127 136.968 211.514C138.35 211.029 139.779 210.692 141.231 210.507C137.767 211.733 134.232 212.747 130.647 213.543C131.537 213.354 132.427 213.23 131.926 213.457L129.538 213.995L127.161 214.49C128.104 214.366 128.723 214.269 129.25 214.199C129.778 214.129 130.172 214.065 130.604 213.989C132 213.742 133.381 213.413 134.74 213.004C134.425 213.096 133.855 213.144 134.282 213.004C135.486 212.612 136.882 212.321 138.039 211.896L138.29 212.213C139.963 211.61 142.457 210.851 145.261 209.834C148.277 208.759 151.207 207.455 154.028 205.932L153.495 206.373C155.154 205.588 156.729 204.634 158.196 203.526C159.379 202.643 160.6 201.734 162.955 200.184C161.671 201.212 162.38 200.932 162.721 200.926C163.291 200.512 163.787 200.178 164.32 199.85C164.853 199.522 165.268 199.247 165.743 198.978C166.681 198.44 167.613 197.901 168.802 197.099C167.4 197.961 167.795 197.562 168.296 197.099C168.797 196.637 169.362 196.12 168.376 196.777C168.205 196.669 169.298 195.775 170.699 194.624C172.101 193.472 173.801 192.121 174.963 191.168C175.368 190.964 175.139 191.265 174.638 191.765C174.137 192.266 173.327 192.96 172.586 193.617C171.078 194.877 169.831 195.937 171.744 194.758C172.479 194.227 173.159 193.623 173.775 192.955C173.961 192.707 173.625 192.874 172.805 193.493C174.26 192.341 176.066 190.834 177.751 189.392C179.435 187.949 180.986 186.539 182.014 185.683L185.351 181.733C185.788 181.194 186.177 180.71 186.55 180.199C186.943 179.657 187.308 179.094 187.642 178.514C186.129 180.349 186.331 180.715 184.157 182.788C184.791 181.889 185.463 181.017 186.07 180.096C188.858 176.824 191.155 174.257 192.908 171.834C192.375 172.733 191.773 173.6 191.192 174.466L191.272 174.332C190.735 175.182 190.158 176.004 189.54 176.797C188.916 177.696 188.351 178.412 188.591 178.299C190.126 175.898 191.789 174.283 193.686 171.097L193.612 171.237C195.365 168.449 196.953 166.097 198.302 163.944C199.564 162.024 200.583 159.952 201.334 157.776C200.828 158.852 199.474 160.849 199.709 160.128C200.588 158.895 202.256 155.235 202.374 155.445L201.867 156.694C202.981 154.517 203.966 152.276 204.82 149.982C204.876 149.727 204.876 149.462 204.82 149.207C204.871 148.56 205.024 147.926 205.273 147.328C207.991 140.331 208.668 133.259 211.253 126.186L211.402 124.642C211.738 121.035 211.935 117.273 212.031 113.064C212.218 112.989 212.329 114.727 212.282 116.756C212.228 117.784 212.239 118.856 212.148 119.867L212.052 121.251L211.983 122.327C212.633 119.405 212.516 115.013 212.751 110.965C212.82 107.197 212.282 104.372 212.122 104.98C212.095 97.8858 209.894 90.2912 208.508 83.1488C209.531 89.0264 210.107 95.7274 211.13 101.605C210.763 100.34 210.837 98.2572 210.475 96.9923C208.487 94.8393 209.451 91.1094 207.911 88.1329C210.336 89.4785 209.009 91.9006 209.377 93.1923C209.91 90.2912 207.101 87.6861 208.428 85.2318L207.986 86.0499C207.256 83.5202 207.33 81.4372 205.321 79.2735C206.131 79.7202 205.683 80.5383 206.493 80.9851C205.396 77.1905 203.829 74.214 202.763 70.414C203.498 72.9438 205.486 75.1075 205.774 78.4553C206.216 77.6372 205.406 77.1905 205.849 76.3724C207.026 78.084 208.204 79.8009 208.124 81.8839C205.929 74.2894 202.033 67.8897 200.663 60.7365C199.56 56.9688 200.215 61.5546 200.215 61.5546C198.387 55.2303 193.606 50.4561 189.806 44.8692C189.449 44.4278 189.14 44.0242 188.831 43.6205C188.522 43.2168 188.202 42.8239 187.893 42.4417C184.045 38.8894 180.879 35.014 176.466 31.1387C176.152 30.8804 175.837 30.6005 175.523 30.3529C174.878 29.8146 174.217 29.2764 173.519 28.7382C171.429 27.0965 169.095 25.2934 166.222 23.2589L168.034 24.26C166.215 22.8123 164.25 21.5621 162.172 20.53C160.404 19.1667 158.496 18.0009 156.48 17.053C156 16.8108 155.504 16.6009 155.03 16.3317C150.271 13.927 145.333 11.9024 140.262 10.2766L140.022 10.2012C138.969 9.82895 137.892 9.53394 136.797 9.31849L136.595 9.27004L135.907 9.10857C135.907 9.00631 136.781 9.0709 136.184 8.78563L136.046 8.72642C134.585 7.60688 132.64 8.3066 130.865 7.75759H130.721H130.577H130.428C129.362 7.53153 128.456 7.03097 127.364 7.40235H127.193L125.647 7.22474H125.477C124.987 7.33238 124.891 7.87062 124.741 7.78989C122.881 6.17517 120.163 6.84258 117.871 6.36355L117.546 6.97714C116.71 6.70803 116.049 5.75534 115.281 5.72305C112.83 5.55619 110.293 5.53466 107.734 5.18481H107.505H107.159L107.175 5.07178ZM53.4302 173.605C53.8513 173.923 54.1924 174.208 54.5921 174.493L54.251 174.305L53.4302 173.605ZM52.9559 173.185C47.9494 168.807 43.491 163.827 39.6796 158.357C40.0527 158.723 40.4525 159.213 41.044 159.826C41.6356 160.44 42.2379 161.08 42.6749 161.495C42.3232 161.231 42.7282 161.904 42.4617 161.673L43.1706 162.448C43.4051 162.695 43.6609 162.932 43.9061 163.185L45.3984 164.644C46.0806 165.72 46.1819 166.129 45.6009 165.72C46.3524 166.603 47.461 167.738 48.351 168.605C49.2411 169.472 49.95 170.166 49.8274 170.333C52.0019 172.378 49.3211 169.477 49.2251 169.224L49.4436 169.348C48.6868 168.605 47.9726 167.83 47.2478 167.066C47.3118 166.775 47.914 167.459 48.5589 168.207C49.0294 168.858 49.6398 169.394 50.3443 169.773C50.5842 169.698 50.8773 169.865 51.2397 170.182C51.6022 170.5 51.9752 170.963 52.4069 171.458C52.8386 171.953 53.313 172.534 53.7713 173.019C54.1866 173.506 54.655 173.945 55.1677 174.327C54.4171 173.996 53.6842 173.626 52.9719 173.218L52.9559 173.185ZM156.293 201.712C154.209 202.643 151.784 203.585 150.132 204.446L151.944 203.23L153.389 202.207C163.391 197.111 172.483 190.368 180.293 182.255C179.76 182.933 179.024 183.805 178.251 184.688L176.807 186.259L175.571 187.594C176.013 187.024 174.995 187.836 175.373 187.39C174.553 188.245 173.711 189.085 172.837 189.876C171.962 190.667 171.104 191.491 170.209 192.261C168.392 193.477 167.773 193.622 168.61 192.799C167.011 193.945 164.917 195.533 163.147 196.744C161.378 197.955 159.949 198.8 159.827 198.617C155.563 201.249 161.346 198.041 161.751 197.864L161.394 198.111C162.14 197.632 162.891 197.153 163.627 196.647C164.362 196.141 165.098 195.641 165.828 195.119C166.201 195.146 164.949 196.018 163.51 196.922C162.321 197.56 161.203 198.323 160.173 199.199C159.897 199.688 159.476 200.078 158.969 200.313C158.104 200.809 157.215 201.26 156.304 201.664L156.293 201.712ZM152.099 202.826L150.436 203.682C150.622 203.564 150.788 203.461 150.926 203.359C151.411 203.149 151.875 202.929 152.339 202.697L152.099 202.826ZM122.711 192.363C122.663 192.366 122.615 192.366 122.567 192.363L123.739 192.142L122.748 192.336L122.711 192.363ZM36.8069 184.661C36.4499 184.295 36.0874 183.923 35.741 183.552L36.5938 184.381L36.8069 184.661ZM54.2883 200.27C53.6094 199.972 52.9537 199.623 52.327 199.225C52.1133 199.09 51.9211 198.923 51.7567 198.73C51.5313 198.486 51.2751 198.272 50.9946 198.095C50.5415 197.772 49.7847 197.299 48.4949 196.534C48.0473 196.071 47.493 195.544 46.992 195.011C46.491 194.478 46.0113 193.935 45.6809 193.552C45.0147 192.724 44.9134 192.384 46.3737 193.192C45.553 192.546 44.8761 191.992 44.2419 191.518L42.5364 190.226C41.4704 189.403 40.4418 188.611 39.0294 187.336C38.246 186.351 38.619 186.561 39.1467 186.851C41.8624 189.329 44.709 191.655 47.6742 193.822L47.4397 193.692C46.9707 193.434 46.8694 193.461 47.6475 194.128C48.389 194.789 49.2244 195.333 50.1258 195.743C50.3367 195.813 50.5431 195.896 50.7441 195.991C53.2313 197.659 55.7842 199.22 58.4028 200.673C59.9911 201.549 61.6184 202.392 63.2848 203.203C65.6407 204.458 68.0621 205.583 70.5385 206.572C70.336 206.462 70.148 206.327 69.9789 206.169L71.386 206.707C70.846 206.817 70.2886 206.802 69.7551 206.664C69.1155 206.508 68.6572 206.416 68.1562 206.309C67.4945 206.152 66.8445 205.949 66.2108 205.701C65.7685 205.528 65.2462 205.345 64.5586 205.044C63.8711 204.742 63.1196 204.414 62.1816 203.967C61.7722 203.892 61.3756 203.758 61.0037 203.569C60.174 203.239 59.3643 202.86 58.5787 202.433C57.6514 201.895 56.5854 201.357 55.5515 200.759C54.5175 200.162 53.4516 199.522 52.5135 198.886C53.0891 199.36 53.6807 199.807 54.2617 200.243L54.2883 200.27Z" fill="#094111"/>
<path d="M38.0275 163.815L37.9635 163.686L38.7158 164.611L38.0755 163.852L38.0275 163.815Z" fill="#19411D"/>
<path d="M58.0138 164.719C55.7611 164.848 53.7109 163.443 51.8633 160.505C50.3475 157.931 49.4681 155.027 49.2997 152.038C48.9693 146.196 49.5218 136.939 50.9573 124.265C52.6095 109.352 55.0558 101.802 58.2962 101.616C58.4082 101.616 59.0211 101.648 60.1296 101.729C61.2382 101.81 61.8725 102.875 62.0483 104.915L62.1603 105.346C62.1822 105.854 62.1228 106.363 61.9844 106.853C61.1672 110.179 60.3251 114.826 59.4581 120.793C57.6567 133.083 56.9265 142.264 57.2676 148.335C57.4346 151.252 57.8628 152.688 58.5521 152.641C59.1845 152.544 60.0533 151.468 61.1583 149.411C68.9041 134.502 74.6051 122.93 78.2612 114.695C81.4235 105.961 82.9318 100.31 82.7861 97.7405C82.5872 95.2287 82.0666 93.7055 81.2245 93.1708C80.959 93.0148 80.739 92.7908 80.5864 92.5215C80.4339 92.2522 80.3544 91.9471 80.3558 91.6368C80.2683 90.7888 80.4519 89.9348 80.8796 89.1998C81.3073 88.4647 81.9567 87.8871 82.7328 87.5516C83.1824 87.3054 83.6781 87.1569 84.1879 87.1156C84.6186 87.0802 85.0498 87.1778 85.4243 87.3955C87.6344 88.5581 88.9224 90.8277 89.2884 94.2042L89.4163 94.9847C89.7396 100.704 87.908 108.864 83.9214 119.464C81.0049 127.418 77.607 135.183 73.747 142.716C66.3707 157.022 61.1263 164.353 58.0138 164.708" fill="white"/>
<path d="M95.2683 151.069C93.9962 151.145 92.4524 150.764 90.6368 149.928C88.8211 149.092 87.3182 147.393 86.1279 144.831C85.4447 143.305 85.0575 141.66 84.9873 139.987C84.8274 137.184 85.3373 133.377 86.5169 128.565C87.5142 124.263 88.9725 120.083 90.8659 116.1C91.9035 113.99 93.4064 112.879 95.3749 112.768C98.6118 112.582 100.545 113.934 101.174 116.826C101.254 117.289 101.707 117.903 102.49 118.597C105.048 120.793 106.455 124.168 106.711 128.722C106.711 128.958 106.738 130.202 106.791 132.452C106.844 134.701 106.107 137.834 104.579 141.849C103.066 145.857 100.934 148.645 98.1836 150.213C97.2895 150.717 96.2953 151.013 95.2736 151.08L95.2683 151.069ZM93.4668 143.717C95.2043 142.64 96.6593 140.683 97.8318 137.845C99.2728 134.395 99.9267 130.663 99.7452 126.924C99.6832 124.982 99.1585 123.084 98.2156 121.391C97.0573 122.51 96.0109 124.532 95.0764 127.457C93.4526 132.591 92.742 137.077 92.9445 140.913C92.9847 141.862 93.1643 142.8 93.4775 143.695" fill="white"/>
<path d="M119.241 154.966C114.846 155.217 111.892 153.244 110.378 149.045C109.333 146.053 108.747 142.916 108.64 139.745C108.285 133.555 109.074 125.675 111.007 116.105C112.94 106.535 114.853 96.9797 116.747 87.4386C117.198 85.1887 118.321 84.0118 120.115 83.9077C120.71 83.8871 121.303 83.9709 121.869 84.1553C122.496 84.2973 123.058 84.6475 123.465 85.15C123.871 85.6525 124.1 86.2783 124.113 86.9272C124.138 87.6996 124.064 88.472 123.894 89.2255C118.6 115.779 116.216 133.72 116.742 143.049C116.987 147.431 117.891 149.584 119.454 149.508C121.476 149.39 125.562 146.08 131.713 139.578C131.724 139.579 131.736 139.577 131.747 139.573C131.758 139.569 131.768 139.562 131.776 139.553C131.784 139.544 131.789 139.533 131.792 139.522C131.795 139.51 131.795 139.498 131.793 139.486C132.302 138.918 132.985 138.539 133.733 138.41C134.189 138.405 134.632 138.568 134.98 138.867C135.181 139.014 135.347 139.205 135.464 139.426C135.581 139.647 135.647 139.892 135.657 140.143C135.667 140.831 135.496 141.509 135.161 142.108C130.983 150.31 125.685 154.596 119.268 154.966" fill="white"/>
<path d="M145.671 159.337C145.188 159.359 144.706 159.267 144.264 159.067C141.716 158.099 139.977 156.557 139.046 154.444C137.447 150.791 136.424 144.964 135.976 136.962C135.461 127.798 136.044 116.518 137.725 103.123C137.786 102.508 137.809 101.889 137.794 101.271C137.762 100.733 137.517 100.496 137.058 100.523C135.949 100.63 134.872 100.962 133.893 101.497C132.368 102.215 130.275 102.656 127.614 102.821C126.516 102.886 125.273 101.903 123.883 99.8719C123.366 99.1688 123.048 98.3374 122.961 97.466C122.883 96.0055 123.992 95.0636 126.287 94.6402L137.389 92.4872C138.711 92.2343 139.553 91.2816 139.926 89.6184L144.648 68.4333C145.156 66.1189 146.222 64.915 147.846 64.8217C148.468 64.8073 149.088 64.8908 149.684 65.0693C151.994 65.8157 153.193 67.0357 153.282 68.7293C153.299 69.451 153.193 70.1704 152.967 70.8554C152.04 73.8982 150.862 78.2131 149.434 83.8001C148.588 87.0869 148.165 88.9636 148.165 89.43C148.277 90.4204 149.119 90.8671 150.681 90.781L155.446 90.415C156.721 90.355 157.999 90.3712 159.272 90.4635C160.727 90.555 162.47 91.1578 164.421 92.2719C166.372 93.3861 167.454 94.651 167.619 96.0396C167.643 96.6789 167.53 97.3161 167.288 97.9073C166.878 98.8062 166.324 99.2798 165.631 99.3175C164.803 99.3309 163.984 99.1367 163.248 98.7523C161.703 98.0813 159.225 97.8427 155.814 98.0365C149.972 98.3702 146.876 99.0161 146.524 99.9742C146.294 100.55 146.124 101.149 146.018 101.761C144.032 114.108 143.394 126.638 144.115 139.126C144.257 142.884 144.72 146.622 145.501 150.3C146.013 152.327 146.951 154.219 148.251 155.849C148.512 156.135 148.683 156.493 148.741 156.877C148.742 157.294 148.614 157.7 148.373 158.039C147.84 158.771 146.929 159.207 145.66 159.337" fill="white"/>
<path d="M175.699 144.083C175.289 144.115 174.877 144.081 174.478 143.981C169.823 142.782 167.345 139.468 167.043 134.039C166.937 132.112 166.675 131.16 166.276 131.181C166.215 131.181 164.899 133.044 162.326 136.768C160.877 138.9 159.477 140.839 158.127 142.587C156.776 144.334 155.355 145.251 153.863 145.337C152.669 145.398 151.481 145.132 150.425 144.567C149.283 144.06 148.308 143.233 147.616 142.184C146.925 141.134 146.546 139.907 146.524 138.647C146.487 137.91 146.533 137.171 146.662 136.445C147.696 129.061 150.754 121.563 155.835 113.952C157.924 110.841 160.182 109.218 162.609 109.081C164.091 108.989 165.56 109.417 166.766 110.292C168.034 111.186 168.688 111.982 168.727 112.682C168.79 113.256 168.703 113.836 168.477 114.367C167.907 115.632 167.251 116.283 166.5 116.326C165.837 116.4 165.167 116.286 164.565 115.998C164.183 115.767 163.762 115.612 163.323 115.54C162.977 115.54 162.534 115.998 162.001 116.848C159.71 120.379 157.51 125.602 155.403 132.516C155.165 133.112 155.025 133.743 154.987 134.384C154.987 134.674 155.094 134.814 155.27 134.809C156.137 134.755 158.477 132.014 162.289 126.585C167.125 119.688 170.11 116.032 171.243 115.615C171.77 115.423 172.32 115.301 172.879 115.255C173.261 115.22 173.646 115.258 174.014 115.368C175.681 116.15 176.583 117.765 176.722 120.212C176.776 121.306 176.692 122.402 176.471 123.474C175.72 127.191 175.407 130.985 175.539 134.777C175.673 137.162 176.309 139.49 177.404 141.607C177.62 141.946 177.76 142.328 177.814 142.727C177.862 143.545 177.159 143.997 175.715 144.077" fill="white"/>
<path d="M96.1637 80.8236C93.8613 80.3535 92.5644 78.9416 92.273 76.5877C92.1494 70.4915 93.8509 64.4997 97.155 59.3963C97.9758 58.0937 98.9831 57.4586 100.22 57.4425C100.963 57.4416 101.696 57.6265 102.351 57.9807C102.575 58.0759 102.773 58.223 102.929 58.41C103.086 58.5971 103.197 58.8188 103.252 59.0572C103.295 59.1056 103.295 59.2348 103.3 59.4609C103.305 59.6869 103.039 59.9561 102.511 60.1391C100.092 60.9679 98.4022 63.6215 97.4375 68.0512C96.9149 70.2017 96.6289 72.4038 96.5847 74.6177C96.5847 76.0871 96.7446 76.8029 96.9631 76.7976C97.0964 76.7545 97.2243 76.4854 97.3948 75.9041C98.3369 72.7492 99.4962 69.6648 100.864 66.6733C103.231 61.4272 105.404 54.5898 107.383 46.161C107.761 44.6001 108.502 43.8304 109.61 43.8196C109.928 43.8095 110.244 43.8663 110.538 43.9865C111.556 44.2395 112.094 44.8154 112.105 45.6604C112.102 46.1961 112.002 46.7268 111.812 47.2267C109.6 54.4768 108.523 60.6019 108.582 65.5537C108.611 67.6303 108.813 69.7008 109.184 71.7435C109.466 73.6042 110.268 75.3448 111.497 76.7599C111.738 77.0035 111.934 77.2876 112.078 77.5995C112.078 78.4446 111.433 78.9021 110.106 78.9182C109.698 78.9321 109.291 78.8624 108.91 78.7135C108.529 78.5646 108.182 78.3395 107.889 78.0517C106.823 76.9752 106.002 75.3981 105.491 73.2075C105.075 71.5605 104.744 69.9135 104.505 68.3095C104.414 67.7713 104.366 67.5129 104.318 67.5129C103.753 68.0081 102.252 71.7274 99.8145 78.6706C99.2549 80.1077 98.3382 80.8236 97.0111 80.8236C96.729 80.8178 96.4477 80.7926 96.169 80.7482" fill="white"/>
<path d="M111.417 70.6025C111.417 70.2042 111.492 69.3538 111.652 67.9705C111.812 66.5872 112.366 64.7949 113.442 62.5881C115.383 58.6428 117.44 56.6674 119.689 56.6244C121.501 56.6244 122.924 57.5232 123.873 59.3156C124.175 59.8579 124.335 60.4694 124.336 61.0918C124.324 61.9377 124.106 62.7676 123.702 63.5085C121.229 67.33 118.873 69.7682 116.635 70.8662C115.841 71.2753 115.452 71.6843 115.452 72.0826C115.463 72.2652 115.495 72.4459 115.548 72.6209C115.825 73.5574 116.358 74.0418 117.147 74.031C118.335 74.031 119.875 73.2829 121.842 71.792C123.116 70.8393 124.033 70.0696 124.603 69.569C125.301 68.8478 125.871 68.4926 126.266 68.4926C126.49 68.5024 126.706 68.5771 126.889 68.7079C127.043 68.8486 127.166 69.0196 127.251 69.2103C127.336 69.401 127.382 69.6074 127.385 69.8166C127.385 70.3064 127.092 70.9792 126.484 71.9212C125.696 73.0856 124.704 74.0959 123.558 74.903C122.516 75.8055 121.26 76.4193 119.913 76.6846C119.294 76.7384 118.724 76.7868 118.191 76.7976C113.73 76.8514 111.455 74.7792 111.407 70.5863L111.417 70.6025ZM118.58 64.6119C119.646 62.6365 120.131 61.4255 120.126 60.9357C120.126 60.715 119.993 60.5804 119.684 60.5858C119.591 60.5853 119.5 60.6052 119.416 60.6443C119.332 60.6833 119.258 60.7406 119.199 60.8119C117.035 64.6334 115.955 66.6984 115.958 67.007C115.958 67.2331 116.097 67.4107 116.406 67.4484C117.334 66.6809 118.077 65.7112 118.58 64.6119Z" fill="white"/>
<path d="M61.995 98.1872C61.5701 98.2026 61.1451 98.1591 60.7319 98.058C58.3975 97.5467 56.7133 95.8674 55.7326 92.9502C55.1802 91.1827 54.786 89.3687 54.5548 87.5301C53.9419 82.5621 54.0964 76.4047 55.0185 69.1223C55.5035 65.2147 55.9405 62.292 56.2816 60.4728C56.5374 59.294 56.4468 58.5566 56.0577 58.6105C55.4981 58.6804 53.3289 59.983 49.6141 62.5719C45.8994 65.1608 43.5596 66.4634 42.6376 66.5818C41.7156 66.7002 40.9801 66.0436 40.4631 64.6172C40.3738 64.384 40.3078 64.1424 40.2659 63.896C40.138 62.8787 40.7242 62.1144 41.966 61.56C43.2079 61.0056 45.6968 59.6008 49.5609 57.2541C53.05 55.155 56.6174 53.2173 60.2629 51.4411C63.7948 49.7237 67.5424 48.5013 71.4019 47.808L72.4678 47.7327C75.17 47.5658 76.6197 48.2709 76.8169 49.8856C76.9874 51.242 76.7689 52.2431 76.2146 52.8298C76.1041 52.9151 75.9739 52.9707 75.8362 52.9913C75.2257 52.9499 74.6287 52.7909 74.0774 52.523C72.8299 52.0557 71.4827 51.9277 70.1707 52.1516C68.1298 52.4189 66.1924 53.2163 64.5479 54.466C62.9919 55.568 61.932 57.2481 61.6006 59.1379C59.4687 71.792 58.8398 81.5072 59.6766 88.3428C60.087 91.6745 61.057 94.0159 62.5919 95.4314C62.7653 95.5582 62.9117 95.7187 63.0225 95.9036C63.1332 96.0885 63.2061 96.294 63.2368 96.5079C63.3541 97.4714 63.0183 97.9719 62.1709 98.1226L61.995 98.1872Z" fill="white"/>
<path d="M64.2548 67.5398C63.1889 67.0447 62.5866 66.4311 62.5014 65.7529C62.4994 65.1778 62.6684 64.6153 62.9864 64.1382C63.5939 63.0617 64.7079 61.0541 66.1842 57.943C66.4664 57.3085 66.8843 56.7449 67.4076 56.2926C67.931 55.8404 68.547 55.5107 69.2114 55.3272C70.3149 55.2611 71.4114 55.5432 72.3491 56.1343C73.2868 56.7255 74.0193 57.5964 74.4452 58.6266L74.9249 59.773C75.2652 60.8014 75.7306 61.7832 76.3106 62.6957C76.5278 63.0248 76.6882 63.3888 76.7849 63.7722C76.7972 64.0473 76.7081 64.3172 76.5349 64.5299C76.3617 64.7427 76.1166 64.883 75.8469 64.924C75.2873 64.994 74.6211 64.671 73.9176 64.0144C73.0378 63.4297 72.3147 62.6347 71.8123 61.6999C71.2367 60.2198 70.6931 59.4878 70.2454 59.547C69.7977 59.6062 69.1795 60.3651 68.6465 61.813L67.7085 63.8798L66.7225 66.0328C66.3974 67.1092 65.9603 67.6798 65.3421 67.7551C64.9632 67.7805 64.5841 67.7102 64.2388 67.5506L64.2548 67.5398ZM65.5553 88.655C65.0359 87.7003 64.7132 86.6494 64.6066 85.5655C64.3827 83.757 64.532 81.2596 65.1076 78.1001C65.5827 75.2755 66.3472 72.5085 67.3887 69.8435C67.9536 68.4548 68.881 67.6475 70.1654 67.486C72.2334 67.2277 73.5818 68.0243 74.0934 69.865C74.299 70.3029 74.6198 70.6753 75.0208 70.9415C76.7743 72.271 77.8295 74.3755 78.1866 77.3143C78.1866 77.4811 78.2506 78.2777 78.3732 79.7579C78.4958 81.238 78.176 83.2241 77.3712 85.9046C76.5664 88.585 75.3193 90.4634 73.5818 91.5991C73.0208 91.9549 72.3929 92.1895 71.7377 92.2881C70.1122 92.4926 67.3141 91.8683 65.5553 88.6442V88.655ZM72.8303 83.6063C73.6004 81.3071 73.8624 78.8655 73.5978 76.4531C73.4665 75.2001 73.0447 73.996 72.3666 72.9384C71.6684 73.7134 71.0928 75.0483 70.5972 77.0021C69.8087 79.8649 69.545 82.8491 69.819 85.8077C69.8681 86.4221 70.0176 87.0241 70.2614 87.5893C71.3593 86.8196 72.2121 85.4363 72.841 83.5955" fill="white"/>
<path d="M116.928 169.773C117.083 169.972 117.168 170.217 117.168 170.47C117.168 170.723 117.083 170.969 116.928 171.167L116.619 171.555C116.551 171.61 116.507 171.688 116.494 171.775C116.481 171.862 116.501 171.95 116.55 172.023C116.948 172.634 117.294 173.279 117.584 173.95C117.65 174.1 117.685 174.262 117.686 174.427C117.688 174.591 117.656 174.754 117.592 174.906C117.529 175.057 117.435 175.194 117.317 175.307C117.199 175.42 117.06 175.508 116.907 175.565C116.615 175.669 116.295 175.657 116.011 175.531C115.728 175.405 115.503 175.174 115.383 174.886C114.556 172.987 113.186 171.381 111.448 170.273C109.711 169.166 107.685 168.609 105.632 168.673C103.579 168.738 101.591 169.42 99.9248 170.634C98.2585 171.847 96.9895 173.536 96.2809 175.484C96.1966 175.712 96.0464 175.91 95.8497 176.051C95.653 176.192 95.4189 176.27 95.1777 176.275C95.0232 176.274 94.87 176.247 94.7246 176.194C94.4294 176.072 94.1933 175.838 94.0667 175.542C93.9402 175.247 93.9334 174.913 94.0478 174.612C94.1863 174.241 94.3356 173.885 94.5008 173.535C94.5372 173.457 94.5438 173.367 94.5192 173.284C94.4947 173.2 94.4407 173.129 94.3676 173.083L93.4775 172.071C93.3607 171.939 93.2885 171.774 93.2712 171.597C93.254 171.421 93.2926 171.244 93.3816 171.092C93.471 170.937 93.6078 170.817 93.7712 170.748C93.9347 170.679 94.116 170.665 94.2876 170.71L95.6573 171.043C95.8652 171.076 96.0038 171.108 96.1157 170.968C96.7079 170.235 97.3801 169.573 98.1197 168.993C98.1894 168.936 98.2353 168.854 98.2481 168.764C98.261 168.674 98.2398 168.583 98.1889 168.508L97.5334 167.195C97.4301 166.981 97.4058 166.738 97.4649 166.508C97.524 166.278 97.6626 166.077 97.8557 165.941C98.0487 165.805 98.2835 165.743 98.5176 165.767C98.7518 165.791 98.9698 165.898 99.1323 166.07L100.236 167.26C100.283 167.326 100.352 167.374 100.431 167.395C100.509 167.417 100.593 167.411 100.667 167.378C101.545 166.974 102.466 166.672 103.412 166.479C103.497 166.462 103.572 166.414 103.624 166.345C103.676 166.276 103.701 166.189 103.695 166.102L103.647 163.831C103.646 163.588 103.735 163.354 103.895 163.173C104.056 162.993 104.276 162.878 104.515 162.851C104.77 162.821 105.027 162.89 105.234 163.044C105.441 163.198 105.582 163.425 105.629 163.68C105.784 164.509 106.056 165.919 106.056 165.919C106.061 166.007 106.098 166.089 106.16 166.149C106.222 166.21 106.305 166.245 106.391 166.248C107.567 166.296 108.731 166.506 109.85 166.872C109.924 166.896 110.004 166.895 110.077 166.869C110.151 166.843 110.213 166.793 110.255 166.727L111.439 165.171C111.598 164.983 111.82 164.858 112.063 164.822C112.305 164.785 112.553 164.839 112.76 164.972C112.977 165.127 113.132 165.356 113.198 165.616C113.263 165.876 113.235 166.152 113.117 166.393L112.494 167.679C112.468 167.718 112.451 167.762 112.442 167.808C112.434 167.854 112.435 167.901 112.445 167.947C112.455 167.993 112.474 168.036 112.5 168.074C112.527 168.112 112.561 168.145 112.6 168.169C113.298 168.608 113.951 169.115 114.551 169.682C114.616 169.737 114.698 169.768 114.783 169.768C114.868 169.768 114.95 169.737 115.015 169.682L115.478 169.429C115.713 169.302 115.984 169.264 116.244 169.321C116.504 169.378 116.735 169.527 116.896 169.741" fill="#F6AA29"/>
<path d="M147.233 187.853C147.766 186.588 147.036 185.662 145.682 186.674C145 187.222 144.184 187.574 143.321 187.691C142.431 187.838 141.518 187.683 140.725 187.25C139.961 186.792 139.392 186.066 139.126 185.21C139.12 185.191 139.119 185.171 139.122 185.152C139.125 185.133 139.133 185.115 139.144 185.099C139.156 185.083 139.171 185.07 139.188 185.062C139.205 185.053 139.224 185.048 139.244 185.048C139.777 185.048 140.309 185 140.805 184.957C141.008 184.957 141.21 184.919 141.418 184.908C143.95 184.725 145.65 183.859 146.465 182.336C146.713 181.882 146.847 181.374 146.855 180.856C146.864 180.338 146.746 179.826 146.513 179.364C146.24 178.806 145.841 178.319 145.348 177.945C144.854 177.571 144.28 177.32 143.673 177.212C141.674 176.872 138.807 177.578 136.472 182.906C136.446 182.965 136.425 183.027 136.408 183.089L136.376 183.164C135.774 184.779 135.15 186.458 134.004 187.626C133.471 188.165 132.731 188.563 132.262 188.342C132.166 188.293 132.081 188.225 132.011 188.143C131.831 187.917 131.741 187.631 131.761 187.341L132.294 176.91C132.296 176.869 132.306 176.829 132.323 176.793C132.341 176.756 132.365 176.723 132.396 176.696C132.426 176.669 132.461 176.648 132.5 176.635C132.538 176.622 132.578 176.617 132.619 176.619C133.354 176.663 134.138 176.711 135.076 176.749C135.237 176.755 135.399 176.729 135.55 176.67C135.701 176.612 135.839 176.523 135.955 176.409C136.071 176.296 136.163 176.159 136.225 176.008C136.288 175.858 136.319 175.696 136.318 175.532C136.31 175.217 136.182 174.918 135.962 174.694C135.742 174.471 135.446 174.341 135.134 174.332C134.426 174.305 133.807 174.267 133.226 174.235C133.191 174.232 133.156 174.221 133.126 174.202C133.095 174.182 133.07 174.156 133.052 174.125C133.033 174.094 133.023 174.059 133.021 174.023C133.019 173.987 133.025 173.951 133.04 173.918C133.209 173.541 133.34 173.148 133.429 172.744C133.464 172.59 133.468 172.43 133.442 172.274C133.416 172.117 133.36 171.968 133.276 171.834C133.193 171.7 133.084 171.583 132.956 171.491C132.828 171.4 132.684 171.334 132.531 171.299C132.378 171.264 132.22 171.259 132.065 171.285C131.91 171.312 131.762 171.369 131.629 171.453C131.496 171.537 131.381 171.647 131.29 171.776C131.2 171.905 131.135 172.051 131.1 172.206C130.908 173.046 130.519 173.648 130.066 173.821C129.521 173.958 128.957 174.003 128.398 173.955C127.939 173.936 127.48 173.947 127.023 173.987C126.72 174.017 126.438 174.16 126.234 174.388C126.03 174.616 125.918 174.913 125.919 175.22C125.926 175.536 126.056 175.837 126.28 176.057C126.504 176.278 126.806 176.4 127.119 176.399C128.014 176.399 128.765 176.399 129.453 176.442C129.513 176.444 129.572 176.458 129.626 176.483C129.681 176.509 129.73 176.545 129.771 176.589C129.811 176.634 129.843 176.686 129.863 176.743C129.884 176.8 129.893 176.86 129.89 176.921L129.357 187.217C129.302 188.128 129.598 189.025 130.183 189.72C130.479 190.063 130.842 190.34 131.249 190.533C131.619 190.704 132.02 190.799 132.427 190.813C133.045 190.804 133.656 190.668 134.22 190.412C134.785 190.157 135.292 189.788 135.71 189.327C136.349 188.646 136.887 187.876 137.309 187.04C137.817 188.018 138.597 188.826 139.553 189.365C140.346 189.795 141.227 190.033 142.127 190.059C142.919 190.082 143.709 189.973 144.467 189.736C144.802 189.635 145.132 189.513 145.453 189.37C146.202 189.098 146.823 188.553 147.195 187.842L147.233 187.853ZM139.51 182.605C139.484 182.606 139.458 182.599 139.436 182.587C139.413 182.574 139.394 182.555 139.381 182.533C139.368 182.51 139.361 182.484 139.361 182.458C139.361 182.432 139.369 182.406 139.382 182.384C139.723 181.767 140.137 181.195 140.613 180.678C141.573 179.671 142.399 179.537 142.889 179.553C143.009 179.557 143.128 179.572 143.246 179.596C143.476 179.642 143.693 179.739 143.882 179.879C144.071 180.02 144.227 180.201 144.339 180.409C144.403 180.525 144.437 180.655 144.437 180.788C144.437 180.921 144.403 181.052 144.339 181.168C143.939 181.921 142.889 182.357 141.226 182.481C141.008 182.481 140.794 182.513 140.581 182.529C140.208 182.562 139.856 182.594 139.515 182.605" fill="#7E965B"/>
<path d="M126.356 177.621C125.498 177.691 125.631 179.058 125.631 179.058L125.546 183.902C125.545 183.937 125.533 183.971 125.513 183.999C125.492 184.028 125.463 184.049 125.43 184.06C125.397 184.071 125.361 184.072 125.327 184.062C125.294 184.052 125.264 184.032 125.242 184.004L120.883 178.579C120.747 178.399 120.564 178.261 120.356 178.179C120.147 178.097 119.92 178.075 119.7 178.116C119.436 178.165 119.197 178.303 119.02 178.508C118.844 178.712 118.742 178.97 118.73 179.241L118.682 187.982V188.073C118.702 188.191 118.682 188.312 118.627 188.418C118.571 188.524 118.482 188.607 118.374 188.656C118.265 188.705 118.144 188.716 118.029 188.687C117.914 188.659 117.812 188.592 117.738 188.498C117.684 188.449 117.64 188.388 117.61 188.321C117.579 188.253 117.563 188.18 117.562 188.106L117.461 184.419C117.461 183.999 117.461 180.705 115.329 178.848C114.629 178.236 113.772 177.836 112.856 177.696C112.378 177.617 111.889 177.635 111.417 177.75C111.052 177.814 110.721 178.004 110.479 178.288C110.063 178.902 110.138 180.07 111.758 180.043C112.477 179.987 113.19 180.211 113.752 180.667C113.9 180.798 114.034 180.944 114.151 181.103C114.183 181.144 114.202 181.194 114.206 181.246C114.209 181.299 114.197 181.351 114.17 181.396C114.143 181.44 114.104 181.476 114.057 181.498C114.01 181.52 113.957 181.527 113.906 181.517C113.58 181.462 113.249 181.448 112.92 181.474C111.877 181.559 110.905 182.042 110.203 182.826C109.501 183.61 109.122 184.635 109.144 185.692C109.166 186.749 109.586 187.757 110.32 188.511C111.054 189.265 112.045 189.707 113.091 189.747C113.725 189.773 114.357 189.648 114.935 189.381C115.048 189.33 115.176 189.323 115.295 189.362C115.413 189.4 115.513 189.482 115.574 189.591C115.723 189.834 115.902 190.057 116.107 190.253C116.625 190.754 117.309 191.044 118.026 191.066H118.218C118.992 191.042 119.726 190.713 120.262 190.15C120.799 189.587 121.097 188.833 121.091 188.052L121.33 183.267C121.332 183.238 121.343 183.21 121.361 183.187C121.379 183.164 121.403 183.147 121.431 183.138C121.459 183.129 121.488 183.129 121.516 183.138C121.544 183.146 121.568 183.163 121.586 183.186L125.887 188.676C126.054 188.89 126.287 189.041 126.55 189.104C126.812 189.167 127.088 189.137 127.332 189.021C127.534 188.922 127.705 188.77 127.827 188.58C127.949 188.39 128.018 188.17 128.025 187.944V180.156C128.072 177.884 127.257 177.567 126.394 177.642L126.356 177.621ZM113.208 187.33C112.735 187.32 112.284 187.13 111.945 186.797C111.606 186.465 111.404 186.015 111.38 185.538C111.43 185.035 111.654 184.565 112.012 184.212C112.371 183.858 112.842 183.644 113.341 183.606C113.831 183.681 114.278 183.93 114.6 184.31C114.923 184.689 115.1 185.173 115.1 185.673C115.055 186.141 114.834 186.575 114.482 186.883C114.13 187.192 113.674 187.352 113.208 187.33Z" fill="#7E965B"/>
<path d="M111.988 190.974C111.612 190.912 111.245 190.803 110.895 190.651C110.543 190.505 110.221 190.293 109.946 190.027C109.587 189.698 109.257 189.338 108.96 188.951C108.411 188.241 107.932 187.478 107.532 186.674L106.823 185.258C107.54 184.814 108.1 184.154 108.423 183.37C108.746 182.586 108.817 181.72 108.624 180.893C108.386 180.183 107.959 179.552 107.39 179.069C106.822 178.586 106.134 178.27 105.4 178.153C104.139 177.916 102.856 177.819 101.573 177.863H101.541C100.886 177.863 100.779 178.401 100.779 179.063C100.774 179.11 100.774 179.157 100.779 179.203C100.785 179.309 100.785 179.415 100.779 179.521V188.073C100.776 188.123 100.776 188.174 100.779 188.224C100.814 188.482 100.752 188.743 100.603 188.956C100.475 189.139 100.284 189.3 99.7879 189.236C99.7485 189.234 99.7102 189.223 99.6766 189.202C99.6429 189.181 99.6152 189.152 99.596 189.117C99.1963 188.579 99.1749 187.142 99.2869 186.329C99.2895 186.292 99.2895 186.254 99.2869 186.216L99.4787 182.449C99.5198 181.866 99.4468 181.281 99.264 180.727C99.0811 180.173 98.7918 179.66 98.4128 179.219C97.9977 178.815 97.4989 178.508 96.9524 178.322C96.4058 178.136 95.8252 178.075 95.2523 178.143C94.761 178.163 94.274 178.244 93.8026 178.385C93.1907 178.571 92.6388 178.919 92.2037 179.391C92.0044 179.563 91.8511 179.783 91.758 180.03C91.6648 180.278 91.6348 180.545 91.6707 180.807C91.9745 181.808 92.9179 181.749 93.4615 181.275C94.007 180.818 94.6876 180.557 95.3962 180.532C95.6243 180.494 95.8578 180.506 96.0811 180.566C96.3045 180.627 96.5125 180.734 96.6913 180.882C96.7428 180.936 96.7828 180.999 96.8087 181.069C96.8346 181.139 96.846 181.213 96.8419 181.287C96.8379 181.362 96.8187 181.435 96.7854 181.501C96.7522 181.567 96.7056 181.626 96.6487 181.674C96.2879 181.949 95.8939 182.177 95.4761 182.352C95.167 182.486 94.8526 182.61 94.5168 182.745C93.8752 182.98 93.2502 183.258 92.6461 183.579C91.9266 183.969 91.3063 184.521 90.834 185.194C90.8015 185.233 90.7607 185.265 90.7147 185.287C90.6686 185.309 90.6184 185.32 90.5675 185.32C90.5166 185.32 90.4664 185.309 90.4203 185.287C90.3743 185.265 90.3335 185.233 90.301 185.194C90.1198 184.946 89.9386 184.693 89.768 184.419C88.8516 182.905 88.1974 181.245 87.8334 179.51C87.7451 179.314 87.6068 179.146 87.4328 179.022C87.2587 178.898 87.0551 178.823 86.8429 178.805C86.6307 178.787 86.4176 178.826 86.2254 178.919C86.0332 179.012 85.869 179.154 85.7495 179.332L82.5143 184.548C82.4961 184.573 82.472 184.594 82.4442 184.609C82.4164 184.623 82.3857 184.63 82.3545 184.63C82.3232 184.63 82.2924 184.623 82.2647 184.609C82.2369 184.594 82.2128 184.573 82.1946 184.548L78.5917 179.887C78.4378 179.706 78.2374 179.571 78.0127 179.498C77.7879 179.424 77.5474 179.415 77.3177 179.47C77.088 179.526 76.8779 179.644 76.7105 179.813C76.5432 179.981 76.4251 180.193 76.3692 180.425L75.3033 188.299V188.402C75.2941 188.56 75.2269 188.71 75.1146 188.821C75.0023 188.933 74.853 188.998 74.6957 189.004C74.5449 189.006 74.3986 188.952 74.2839 188.853C74.1693 188.754 74.094 188.617 74.0721 188.466C73.7737 186.647 73.6457 185.108 73.5391 183.622C73.3869 181.683 73.1254 179.755 72.7557 177.847C72.5798 176.932 72.34 175.306 70.7304 175.091C69.8244 174.967 69.2221 176.092 68.7691 177.244C68.6305 177.588 68.4386 177.944 68.2787 178.406C68.1189 178.869 67.9483 179.354 67.7884 179.827C67.4793 180.728 67.1648 181.625 66.8451 182.519C66.8021 182.636 66.7202 182.734 66.6132 182.797C66.5062 182.86 66.3809 182.883 66.2588 182.863C65.1709 182.649 64.0607 182.575 62.9544 182.642C62.9544 182.642 61.8085 182.798 61.8885 183.767C61.9204 184.219 62.3521 184.532 62.7998 184.736C63.2832 184.951 63.8065 185.06 64.3348 185.054C64.7612 185.044 65.1872 185.088 65.6032 185.183C65.6347 185.188 65.6646 185.2 65.6908 185.218C65.717 185.237 65.7388 185.26 65.7547 185.288C65.7705 185.316 65.78 185.347 65.7824 185.379C65.7847 185.411 65.78 185.444 65.7685 185.474C65.2029 187.181 64.5245 188.848 63.7378 190.463L63.7059 190.533C63.0907 191.744 62.27 192.837 61.2809 193.762C60.1776 194.694 60.1243 195.431 60.3642 195.797C60.4314 195.903 60.5304 195.984 60.6466 196.028C61.0997 196.19 62.5866 196.411 64.7612 193.569C66.5306 190.635 66.7545 189.618 68.1135 186.033C69.6058 186.786 70.8677 187.934 71.7644 189.354L71.8603 189.489C72.6224 190.759 73.3952 191.922 74.6371 191.771C75.4318 191.705 76.1758 191.35 76.7308 190.772C77.2857 190.194 77.6137 189.432 77.6537 188.628L78.4638 184.02C78.4693 183.994 78.482 183.969 78.5007 183.949C78.5193 183.93 78.543 183.916 78.5691 183.909C78.5952 183.902 78.6226 183.903 78.6483 183.911C78.674 183.92 78.6968 183.935 78.7143 183.956L81.5124 187.513C81.6289 187.663 81.7788 187.782 81.9498 187.862C82.1207 187.941 82.3079 187.979 82.496 187.972C82.6842 187.964 82.8679 187.912 83.0323 187.82C83.1966 187.727 83.3369 187.596 83.4417 187.438L86.1065 183.498C86.125 183.467 86.1511 183.441 86.1824 183.423C86.2137 183.405 86.2491 183.396 86.2851 183.396C86.3211 183.396 86.3565 183.405 86.3878 183.423C86.4191 183.441 86.4452 183.467 86.4636 183.498C86.8367 184.171 87.2951 184.93 87.812 185.7C89.283 187.853 90.738 189.29 92.1557 189.957L92.3529 190.059C92.9238 190.313 93.5414 190.441 94.165 190.436C94.7618 190.432 95.354 190.33 95.9185 190.135C96.3778 189.974 96.8205 189.769 97.2403 189.521C97.3612 189.889 97.5412 190.235 97.7732 190.544C98.1942 191.166 98.8416 191.596 99.5747 191.739C99.7373 191.76 99.901 191.771 100.065 191.771C100.573 191.754 101.069 191.616 101.513 191.367C101.957 191.118 102.336 190.765 102.618 190.339C103.108 189.661 103.188 189.047 103.241 187.949V186.017C103.242 185.976 103.251 185.936 103.268 185.898C103.284 185.861 103.308 185.827 103.338 185.8C103.368 185.772 103.403 185.751 103.442 185.737C103.48 185.724 103.521 185.718 103.561 185.721H103.737L104.084 185.748C104.206 185.758 104.324 185.8 104.426 185.87C104.528 185.94 104.61 186.035 104.665 186.146L105.437 187.68C105.876 188.558 106.391 189.394 106.978 190.178C108.406 191.852 109.605 192.503 110.506 192.621C112.281 192.853 112.936 191.039 112.019 190.894L111.988 190.974ZM70.9116 185.005C70.3321 184.577 69.7168 184.201 69.0729 183.88C69.0362 183.86 69.0077 183.827 68.9922 183.788C68.9766 183.749 68.975 183.705 68.9876 183.665C69.35 182.653 69.7018 181.636 70.0535 180.629L70.5172 179.284H70.5812C70.853 180.936 70.9756 182.346 71.1141 183.827C71.1408 184.166 71.1728 184.499 71.1994 184.844C71.2033 184.877 71.1974 184.91 71.1826 184.939C71.1678 184.969 71.1446 184.993 71.1161 185.009C71.0875 185.025 71.0549 185.033 71.0223 185.03C70.9897 185.027 70.9586 185.015 70.9329 184.995L70.9116 185.005ZM96.9685 186.071C96.9685 186.173 96.9311 186.405 96.9152 186.717C96.9117 186.773 96.8961 186.828 96.8694 186.877C96.8427 186.926 96.8055 186.969 96.7606 187.002C96.275 187.383 95.7362 187.69 95.1617 187.912C94.8745 188.01 94.5747 188.067 94.2716 188.079C94.1936 188.073 94.1152 188.073 94.0371 188.079C93.7683 188.07 93.5038 188.008 93.259 187.896C93.0877 187.81 92.9456 187.674 92.8507 187.507C92.7558 187.339 92.7124 187.146 92.726 186.954C92.8318 186.679 92.9903 186.428 93.1925 186.216C93.3946 186.003 93.6364 185.833 93.9039 185.716C94.4206 185.448 94.9548 185.216 95.5028 185.021C95.8439 184.881 96.201 184.742 96.5687 184.585C96.6271 184.557 96.6918 184.545 96.7563 184.55C96.8209 184.555 96.8831 184.576 96.9368 184.613C96.9906 184.649 97.034 184.699 97.063 184.757C97.0919 184.816 97.1052 184.881 97.1017 184.946L96.9685 186.071ZM105.496 183.261C105.134 183.487 104.728 183.466 103.897 183.396L103.503 183.364C103.42 183.356 103.344 183.317 103.287 183.256C103.231 183.194 103.2 183.114 103.199 183.03V180.646C103.199 180.6 103.208 180.555 103.226 180.513C103.244 180.472 103.27 180.434 103.303 180.403C103.336 180.372 103.375 180.349 103.418 180.334C103.461 180.319 103.506 180.313 103.551 180.317C104.014 180.347 104.474 180.415 104.926 180.522C105.228 180.562 105.516 180.679 105.761 180.863C106.006 181.047 106.201 181.29 106.327 181.571C106.37 181.907 106.311 182.248 106.159 182.549C106.007 182.851 105.768 183.099 105.475 183.261" fill="#7E965B"/>
<path d="M182.883 126.009C182.681 126.057 182.771 126.131 182.744 126.153C183.084 126.041 182.867 125.987 182.883 126.009Z" fill="#F7B243"/>
<path d="M185.814 124.34C185.93 124.216 186.039 124.084 186.14 123.947C186.044 124.055 185.948 124.168 185.841 124.27L185.814 124.34Z" fill="#F7B243"/>
<path d="M186.795 123.307L186.71 123.581C187.185 123.081 187.681 122.354 188.006 122.015C187.702 122.139 187.318 122.903 186.88 123.264L186.795 123.307Z" fill="#F7B243"/>
<path d="M189.044 121.245L189.097 121.197L189.3 120.944C189.188 120.987 189.476 120.626 189.044 121.245Z" fill="#F7B243"/>
<path d="M189.098 121.197C188.9 121.459 189.274 121.058 189.098 121.197V121.197Z" fill="#F7B243"/>
<path d="M189.993 119.959C189.924 120.088 189.86 120.223 189.785 120.347C189.87 120.298 190.1 119.981 190.036 120.115C190.27 119.733 190.185 119.787 189.993 119.959Z" fill="#F7B243"/>
<path d="M190.136 119.555L190.025 119.747C190.062 119.747 190.099 119.683 190.136 119.555Z" fill="#F7B243"/>
<path d="M189.913 119.943C189.913 119.878 189.881 119.986 189.79 120.169L190.025 119.749C189.966 119.787 189.924 119.749 189.913 119.943Z" fill="#F7B243"/>
<path d="M189.444 120.4C188.953 121.068 189.119 121.041 189.61 120.373C189.433 120.546 189.22 120.777 189.444 120.4Z" fill="#F7B243"/>
<path d="M187.744 122.004L187.605 122.257C187.674 122.133 188.032 121.805 187.979 121.789L187.744 122.004Z" fill="#F7B243"/>
<path d="M191.336 117.817C191.293 117.919 191.251 118.016 191.203 118.113C191.315 117.989 191.485 117.725 191.539 117.736C191.592 117.747 191.389 117.811 191.336 117.817Z" fill="#F7B243"/>
<path d="M191.336 117.817L191.529 117.375C191.304 117.741 191.293 117.822 191.336 117.817Z" fill="#F7B243"/>
<path d="M189.684 120.099L190.121 119.265L190.036 119.388L189.684 120.099Z" fill="#F7B243"/>
<path d="M192.439 116.127L192.38 116.407L192.504 115.917L192.439 116.127Z" fill="#F7B243"/>
<path d="M193.388 114.189C193.29 114.487 193.148 114.768 192.967 115.023C192.94 115.239 193.185 114.819 193.132 115.023C193.247 114.752 193.333 114.468 193.388 114.178" fill="#F7B243"/>
<path d="M193.388 114.189C193.424 114.06 193.451 113.929 193.468 113.796C193.431 113.925 193.404 114.065 193.372 114.216" fill="#F7B243"/>
<path d="M191.949 116.676C192.059 116.602 192.149 116.502 192.21 116.385L192.04 116.509L191.949 116.676Z" fill="#F7B243"/>
<path d="M192.034 116.487L192.227 116.127C192.227 116.175 192.141 116.283 192.029 116.487" fill="#F7B243"/>
<path d="M191.928 116.714V116.676C191.924 116.682 191.922 116.688 191.922 116.695C191.922 116.702 191.924 116.708 191.928 116.714Z" fill="#F7B243"/>
<path d="M190.803 118.398C190.91 118.129 191.178 117.607 190.803 118.043C190.749 118.242 190.964 117.994 190.803 118.398Z" fill="#F7B243"/>
<path d="M191.437 117.289C191.464 117.289 191.544 117.23 191.496 117.365L191.709 116.859L191.437 117.289Z" fill="#F7B243"/>
<path d="M191.805 116.627C191.779 116.707 191.747 116.784 191.709 116.859L191.811 116.703L191.805 116.627Z" fill="#F7B243"/>
<path d="M193.058 114.534C193.126 114.298 193.208 114.066 193.303 113.839C193.17 114.098 193.047 114.377 192.924 114.63C192.924 114.679 192.924 114.819 193.058 114.534Z" fill="#F7B243"/>
<path d="M192.573 115.503C192.572 115.486 192.572 115.47 192.573 115.454C192.573 115.454 192.54 115.497 192.573 115.503Z" fill="#F7B243"/>
<path d="M194.225 111.38V111.331L194.193 111.364" fill="#F7B243"/>
<path d="M192.888 114.668C192.805 114.805 192.746 114.954 192.711 115.109C192.775 114.959 192.845 114.797 192.925 114.63C192.925 114.63 192.925 114.604 192.888 114.668Z" fill="#F7B243"/>
<path d="M193.735 113.059C193.676 113.161 193.607 113.274 193.542 113.392C193.612 113.301 193.746 113.107 193.735 113.059Z" fill="#F7B243"/>
<path d="M192.642 115.411V115.443C192.69 115.384 192.679 115.389 192.642 115.411Z" fill="#F7B243"/>
<path d="M192.642 115.411C192.673 115.316 192.698 115.218 192.717 115.12C192.668 115.233 192.625 115.348 192.588 115.465C192.603 115.444 192.622 115.426 192.642 115.411Z" fill="#F7B243"/>
<path d="M194.273 110.847C194.171 111.003 193.814 111.864 193.873 111.439C193.924 111.151 194.043 110.88 194.219 110.647C194.123 110.755 194.155 110.545 194.177 110.319C194.203 110.18 194.203 110.038 194.177 109.899C194.273 109.582 194.363 109.264 194.448 108.941L194.587 108.855L194.544 108.645L194.454 108.93C194.71 107.978 194.928 107.009 195.104 106.035C195.104 106.035 195.131 106.035 195.147 106.008L195.195 105.636C195.349 105.319 195.195 106.347 195.333 105.895C195.339 106.486 195.26 107.075 195.099 107.644L194.939 107.746C195.044 107.551 195.104 107.334 195.115 107.111C195.079 107.339 195.016 107.561 194.928 107.773C194.822 107.99 194.776 108.232 194.795 108.473L195.008 108.015C194.986 108.605 194.889 109.189 194.72 109.754C194.933 109.517 194.747 109.609 195.024 109.216C194.742 109.539 195.424 107.655 195.072 108.209C195.37 107.811 195.322 107.456 195.605 106.907C195.557 106.907 195.477 107.095 195.605 106.584C195.599 106.543 195.599 106.501 195.605 106.46C195.607 106.449 195.607 106.438 195.605 106.428C195.578 106.516 195.536 106.6 195.482 106.675C195.44 106.401 195.578 105.599 195.578 105.292C195.578 104.985 195.61 105.432 195.685 105.292C195.759 105.152 195.685 105.007 195.685 104.861C195.791 104.861 195.967 104.065 195.925 104.802L196.021 104.146C196.138 103.742 196.199 103.323 196.202 102.902C196.255 102.59 196.17 102.106 196.202 102.364V101.325H196.228C196.282 100.819 196.228 100.286 196.228 99.7427C196.208 99.1763 196.235 98.6091 196.308 98.0473C196.257 97.6223 196.234 97.1943 196.239 96.7662L196.324 96.6532C196.322 96.1436 196.287 95.6348 196.218 95.13C196.298 94.6797 196.298 94.2185 196.218 93.7682C196.127 93.1977 196.015 92.5949 195.978 92.2073H195.861C195.818 91.9436 195.77 91.6691 195.712 91.4108C195.653 91.1524 195.584 90.8725 195.488 90.5334L195.402 90.5926C195.298 90.2525 195.226 89.9027 195.189 89.5484C195.12 89.1448 195.051 88.698 194.939 88.2567C195.007 88.394 195.045 88.5445 195.051 88.698C195.019 87.5839 194.304 86.5451 194.161 85.5601C194.074 85.3899 194.009 85.2089 193.969 85.0219C193.975 85.0408 193.984 85.0589 193.995 85.0757C193.983 85.0458 193.972 85.0153 193.963 84.9842C193.963 84.8765 193.926 84.7635 193.899 84.6451C193.899 84.7474 193.899 84.8496 193.942 84.9304C193.878 84.7527 193.772 84.489 193.654 84.236L193.718 84.0853L193.692 84.0207C193.633 83.7516 193.564 83.8323 193.542 84.0207C193.483 83.9092 193.417 83.8013 193.345 83.6978C193.425 83.4287 193.025 83.0411 193.084 82.6859C192.935 82.5567 192.551 81.6094 192.285 81.3995C192.186 81.1159 192.052 80.8464 191.885 80.5975L191.954 80.4145C191.8 80.2369 191.645 80.0647 191.485 79.8763C191.368 79.4726 191.331 79.295 191.613 79.6126C191.432 79.3796 191.263 79.137 191.107 78.8859C190.955 78.6595 190.776 78.4533 190.574 78.2723H190.67C190.488 78.0194 190.105 77.7341 190.062 77.5242C190.019 77.3143 189.881 77.1797 189.742 76.9267C189.574 76.6501 189.45 76.3486 189.375 76.0333C189.304 75.688 189.347 75.3288 189.497 75.0106L189.641 74.763C189.692 74.6802 189.751 74.6026 189.817 74.5316C189.875 74.4531 189.939 74.3793 190.009 74.3109L190.275 74.0687L190.43 73.8964C190.476 73.8343 190.509 73.7627 190.526 73.6865C190.562 73.5407 190.575 73.3898 190.563 73.2398C190.51 73.3636 190.483 73.3474 190.472 73.2398C190.462 73.1321 190.472 73.1429 190.472 73.0622C190.472 72.9814 190.472 72.933 190.472 72.8576C190.439 72.677 190.37 72.5049 190.27 72.3517C190.185 72.2064 190.073 72.1418 190.025 72.1633L189.987 72.1149C189.987 72.0826 189.929 72.0395 189.918 72.018C189.905 72 189.894 71.9801 189.886 71.9588H189.929H189.966L190.025 71.9857L189.865 71.8888L189.742 71.8081L189.524 71.6466L189.151 71.356C188.93 71.1717 188.682 71.0245 188.415 70.92C188.373 70.8069 188.623 70.9523 188.57 70.8715C188.454 70.8275 188.349 70.7597 188.261 70.6724C188.207 70.5863 188.394 70.7047 188.522 70.7639C187.792 70.2257 187.6 70.3548 187.456 70.4625C187.234 70.1932 186.93 70.0042 186.592 69.9242C186.491 69.7897 186.299 69.5959 186.784 69.8812C186.656 69.7897 186.251 69.5098 185.873 69.2837C185.495 69.0577 185.105 68.8747 185.057 68.9393C184.911 68.838 184.749 68.7617 184.578 68.7132C184.247 68.5733 184.077 68.4871 183.885 68.4279C183.652 68.3417 183.414 68.2733 183.171 68.2234L183.357 68.2934C183.203 68.344 183.037 68.344 182.883 68.2934C182.661 68.2347 182.435 68.1951 182.206 68.175C181.895 68.114 181.574 68.114 181.263 68.175L180.986 68.218C180.757 68.2428 180.531 68.286 180.309 68.3472L180.415 68.4225C180.415 68.5571 180.117 68.6056 179.781 68.8208C179.598 68.9382 179.44 69.092 179.317 69.273C179.197 69.4543 179.117 69.66 179.083 69.8758C179.127 69.7873 179.175 69.7011 179.227 69.6174C179.152 69.884 179.054 70.1434 178.934 70.3925C178.818 70.6496 178.746 70.9243 178.721 71.2052C178.721 71.3021 178.678 71.0653 178.662 70.9307C178.614 71.5013 178.662 71.5282 178.715 71.5228C178.768 71.5174 178.843 71.4851 178.902 71.878C178.843 72.0341 178.689 71.7112 178.736 72.2494C178.705 72.5239 179.2 73.735 179.035 74.4024C179.094 74.2571 179.152 74.1064 179.195 74.4454C179.194 74.5924 179.176 74.7387 179.142 74.8814C179.104 75.016 179.04 75.2205 179.003 75.4197C178.91 75.7633 178.91 76.1256 179.003 76.4692C179.003 76.5446 178.976 76.5715 178.96 76.5769C178.999 76.8983 179.067 77.2154 179.163 77.5242C179.219 77.6896 179.292 77.8484 179.381 77.9978C179.443 78.1024 179.525 78.1938 179.621 78.267C179.621 78.4123 179.77 78.6706 180.096 78.8375C180.264 78.9149 180.444 78.9605 180.629 78.972C180.808 78.978 180.987 78.9599 181.162 78.9182L181.407 78.8429L181.599 78.7837C181.71 78.747 181.824 78.72 181.94 78.7029C182.137 78.7029 182.265 78.7029 182.265 78.7837C182.627 78.7427 182.994 78.7964 183.331 78.9398H183.288C183.507 79.0551 183.714 79.1921 183.906 79.3488C184.056 79.4672 184.173 79.548 184.285 79.6341C184.397 79.7202 184.285 79.7094 184.247 79.7041C184.541 80.1885 184.684 80.5006 184.86 80.7805C184.946 80.9097 185.047 81.0335 185.159 81.1734L185.569 81.6471L185.532 81.7978C185.729 81.997 186.278 83.3802 186.912 84.376C186.912 84.376 186.864 84.376 186.806 84.2791C187.163 84.9014 187.454 85.5598 187.674 86.2437C187.909 86.8949 188.111 87.4386 188.383 87.5946C188.522 87.853 188.65 88.1329 188.778 88.3805C188.426 87.304 189.001 88.4827 188.906 88.0198C189.081 88.4343 189.167 89.1609 188.975 88.6442V88.5527C188.847 88.4935 188.943 88.8326 189.049 89.1932C189.156 89.5538 189.263 89.936 189.188 89.9414C189.749 92.0429 190.153 94.1839 190.398 96.3464L190.531 96.0827L190.606 96.8093C190.606 97.0084 190.51 97.0838 190.456 96.5617C190.446 96.8674 190.522 97.1698 190.675 97.4337C190.728 98.4563 190.44 97.0569 190.472 97.3745L190.531 97.7943V97.6974C190.675 98.0053 190.75 98.3417 190.75 98.6824C190.75 99.0807 190.659 98.8923 190.664 99.0484C190.664 99.0484 190.664 99.1022 190.664 99.2906L190.712 100.206L190.814 99.8342C190.848 100.012 190.873 100.192 190.888 100.372C190.888 100.485 190.925 100.491 190.984 100.276C190.874 100.939 190.837 101.612 190.872 102.283C190.872 102.385 190.872 102.493 190.872 102.59V102.891C190.872 103.085 190.872 103.268 190.846 103.43C190.84 103.653 190.822 103.876 190.792 104.097C190.846 104.712 190.819 105.33 190.712 105.938C190.76 105.766 190.915 105.674 190.83 106.277C190.691 106.148 190.632 106.422 190.568 106.783C190.519 107.138 190.415 107.483 190.259 107.806C190.472 107.402 190.003 109.501 190.318 108.882C190.201 109.372 190.206 108.882 190.057 109.248C189.952 109.891 189.804 110.526 189.614 111.148C189.385 111.805 189.14 112.494 188.943 113.204C188.975 113.236 189.108 113.021 189.06 113.344L188.602 114.006C188.522 114.286 188.719 114.34 188.41 114.792C188.463 114.733 188.548 114.647 188.495 114.835C187.877 116.148 187.296 117.526 186.603 118.823L186.353 119.324C186.267 119.491 186.166 119.647 186.07 119.808C185.884 120.126 185.686 120.443 185.489 120.756C185.095 121.386 184.648 121.98 184.151 122.532C184.439 122.241 184.295 122.467 184.151 122.72C184.274 122.569 184.226 122.779 184.29 122.779C184.018 123.092 183.757 123.409 183.464 123.7C183.464 123.969 182.675 124.776 182.707 124.948L182.92 124.62C182.814 124.922 183.075 124.755 183.341 124.62C183.086 124.954 182.808 125.288 182.563 125.621C185.527 124.889 186.96 122.828 188.426 120.998C190.472 118.452 192.103 115.594 193.26 112.531H193.313C193.393 112.305 193.436 112.128 193.377 112.214C193.457 112.009 193.532 111.799 193.601 111.595C193.548 112.009 193.899 111.815 194.182 111.476C194.15 111.476 194.113 111.439 194.225 110.938L194.273 110.847ZM193.958 110.545V110.502C193.958 110.502 193.958 110.534 193.958 110.551V110.545ZM195.935 103.758C196.015 103.397 195.983 103.527 195.935 103.758V103.758ZM195.935 100.642C195.935 101.46 195.797 100.986 195.823 101.131C195.766 101.591 195.777 102.058 195.855 102.515C195.914 102.911 195.892 103.316 195.791 103.704C195.61 104.189 195.552 103.704 195.456 103.796C195.504 103.313 195.577 102.834 195.674 102.359C195.642 102.536 195.6 102.719 195.562 102.897C195.548 102.6 195.562 102.303 195.605 102.009C195.605 102.057 195.578 102.132 195.562 102.224C195.648 101.194 195.694 100.164 195.701 99.1345C195.855 99.6218 195.934 100.13 195.935 100.642ZM195.674 95.6736C195.642 95.6736 195.61 95.7221 195.589 95.7759C195.589 95.566 195.557 95.356 195.536 95.1408C195.602 95.3142 195.649 95.4948 195.674 95.679V95.6736ZM195.317 91.3031C195.344 91.7961 195.344 92.2902 195.317 92.7833C195.313 92.8167 195.3 92.8483 195.28 92.8748C195.243 92.611 195.2 92.3365 195.157 92.0889L195.317 92.0513L195.141 91.9867C195.099 91.7283 195.056 91.4753 195.008 91.217C195.063 91.1997 195.122 91.1986 195.178 91.2139C195.233 91.2291 195.284 91.2601 195.322 91.3031H195.317ZM194.432 87.3901V87.5839L194.704 88.2621C194.576 88.1006 194.374 87.8099 194.171 87.487C194.065 87.1048 193.953 86.7281 193.835 86.3513C194.099 86.6612 194.311 87.012 194.464 87.3901H194.432ZM192.253 81.4695L192.199 81.4426C192.199 81.4426 192.199 81.3511 192.253 81.4695ZM191.405 79.914C191.341 79.914 191.288 79.9463 191.235 80.0108C191.155 79.8494 191.069 79.6879 190.984 79.5318L191.405 79.914ZM187.275 70.5432C187.349 70.6239 187.248 70.6132 187.093 70.5809L187.248 70.6455C187.339 70.7316 187.365 70.78 187.349 70.807L186.992 70.5594H187.093L186.902 70.4786L186.731 70.3656C186.657 70.269 186.577 70.1773 186.491 70.0911C186.758 70.2257 187.024 70.3764 187.275 70.5217V70.5432ZM190.75 99.156V99.0107C190.803 99.3336 190.75 99.2421 190.75 99.156ZM193.947 110.712C193.904 110.979 193.817 111.237 193.692 111.476C193.782 111.223 193.867 110.965 193.947 110.712Z" fill="#F7B243"/>
<path d="M194.241 111.396L194.07 111.875L193.884 112.348V112.278L193.82 112.477C193.924 112.258 194.045 112.048 194.182 111.848C194.252 111.503 194.246 111.428 194.225 111.396" fill="#F7B243"/>
<path d="M190.894 117.489C190.894 117.489 190.921 117.489 190.926 117.489C190.932 117.489 190.926 117.402 190.894 117.489Z" fill="#F7B243"/>
<path d="M190.995 117.51C190.872 117.666 190.958 117.483 190.926 117.478C190.878 117.607 190.744 117.93 191 117.58V117.515C191.159 117.293 191.338 117.086 191.534 116.896C191.382 116.966 191.243 117.06 191.123 117.176C191.101 117.297 191.051 117.411 190.979 117.51" fill="#F7B243"/>
<path d="M192.402 115.271L192.706 114.517L192.455 114.851H192.509C192.295 115.26 192.391 115.196 192.402 115.266" fill="#F7B243"/>
<path d="M194.331 111.272L194.395 111.406L194.406 110.911L194.331 111.272Z" fill="#F7B243"/>
<path d="M194.747 110.034L194.646 110.255L194.721 110.319L194.747 110.034Z" fill="#F7B243"/>
<path d="M193.89 84.6344C193.852 84.2791 193.842 83.8593 193.761 83.9346L193.708 84.0746C193.786 84.2473 193.848 84.4276 193.89 84.6128" fill="#F7B243"/>
<path d="M196.277 99.5436C196.314 99.2941 196.334 99.0423 196.336 98.79C196.282 99.156 196.196 99.4467 196.277 99.5436Z" fill="#F7B243"/>
<path d="M178.928 76.297C178.928 76.4585 178.971 76.5231 178.993 76.5177C178.993 76.3562 178.955 76.2647 178.928 76.297Z" fill="#F7B243"/>
<path d="M196.335 97.9181C196.335 97.9719 196.335 98.0257 196.335 98.0796C196.358 98.3156 196.367 98.5529 196.362 98.79C196.418 98.5021 196.418 98.206 196.362 97.9181" fill="#F7B243"/>
<path d="M184.185 122.645C184.102 122.751 184.028 122.865 183.965 122.984C184.013 122.898 184.099 122.769 184.185 122.645Z" fill="#F7B243"/>
<path d="M195.696 106.11C195.658 106.334 195.696 106.147 195.696 106.11V106.11Z" fill="#F7B243"/>
<path d="M195.104 107.105C195.104 107.057 195.104 107.02 195.077 107.009C195.098 107.037 195.107 107.071 195.104 107.105Z" fill="#F7B243"/>
<path d="M195.6 106.438C195.6 106.358 195.653 106.261 195.68 106.159C195.68 106.207 195.643 106.288 195.6 106.438Z" fill="#F7B243"/>
<path d="M195.642 106.401C195.642 106.476 195.616 106.535 195.6 106.593C195.584 106.652 195.626 106.593 195.642 106.401Z" fill="#F7B243"/>
<path d="M195.696 106.11C195.696 106.046 195.696 105.954 195.744 105.803C195.744 105.927 195.696 106.046 195.669 106.159C195.669 106.115 195.669 106.099 195.696 106.11Z" fill="#F7B243"/>
<path d="M195.259 108.355L195.345 107.924C195.31 108.068 195.262 108.209 195.2 108.344C195.2 108.344 195.27 108.279 195.259 108.344" fill="#F7B243"/>
<path d="M194.796 108.753C194.694 108.753 194.657 109.07 194.576 109.399V109.345C194.673 109.474 194.732 109.113 194.78 108.753" fill="#F7B243"/>
<path d="M194.534 109.49C194.507 109.593 194.481 109.695 194.448 109.792C194.416 109.889 194.497 109.673 194.534 109.49Z" fill="#F7B243"/>
<path d="M195.792 105.572C195.883 105.771 195.84 104.495 195.749 105.373C195.701 105.523 195.845 105.491 195.792 105.572Z" fill="#F7B243"/>
<path d="M195.115 106.368C195.073 106.541 195.024 106.713 194.976 106.907C194.976 106.907 194.976 106.977 194.976 107.057C195.05 106.842 195.095 106.617 195.11 106.39" fill="#F7B243"/>
<path d="M194.912 107.466C194.912 107.375 194.966 107.176 194.982 107.036C194.946 107.177 194.923 107.321 194.912 107.466Z" fill="#F7B243"/>
<path d="M195.813 100.609V100.023C195.776 99.9634 195.749 100.12 195.754 100.34C195.754 100.48 195.786 100.701 195.824 100.609" fill="#F7B243"/>
<path d="M182.835 124.351L182.905 124.211L182.6 124.534L182.835 124.351Z" fill="#F7B243"/>
<path d="M182.275 125.277C182.335 125.167 182.414 125.07 182.51 124.992H182.334L182.275 125.277Z" fill="#F7B243"/>
<path d="M30.0063 83.9723C28.6259 85.8545 27.3792 87.833 26.2755 89.893H26.2382C26.1423 90.0813 26.0783 90.2374 26.1049 90.2374L25.8065 90.808C25.9237 90.4151 25.5347 90.5711 25.1989 90.8779C25.1989 90.9102 25.2575 90.9264 25.0816 91.4162C25.1456 91.3462 25.2842 91.0879 25.4121 90.9156C25.54 90.7434 25.6359 90.6357 25.5667 90.851C25.4645 91.1399 25.309 91.4066 25.1083 91.6369C25.2895 91.4592 25.0124 92.1751 25.039 92.3904C24.8898 92.7133 24.7512 93.0417 24.6073 93.3754L24.4581 93.4453C24.4581 93.5153 24.4581 93.5907 24.4581 93.6606C24.4954 93.5745 24.5434 93.4884 24.5913 93.4023C24.1827 94.3604 23.8132 95.3274 23.4827 96.3034C23.4827 96.3034 23.4827 96.3034 23.4348 96.3034L23.3335 96.6802C23.1363 96.9923 23.4294 95.9374 23.2376 96.3949C23.3231 95.7768 23.5029 95.1758 23.7705 94.6133L23.9464 94.5326C23.808 94.7199 23.71 94.9344 23.6586 95.1623C23.7172 94.8502 24.2396 94.172 24.1916 93.7898L23.9198 94.2419C23.9837 93.9782 24.0424 93.7037 24.117 93.3754C24.2214 93.0652 24.3553 92.766 24.5167 92.4819C24.2662 92.6972 24.4687 92.6272 24.1276 92.9878C24.2129 92.9179 24.2129 92.9878 24.1703 93.0955C24.1276 93.2031 24.117 93.2354 24.0797 93.3216C24.0424 93.4077 24.0104 93.4992 23.9784 93.5907C23.8345 93.9513 23.7066 94.2904 23.9198 94.0213C23.6503 94.4346 23.403 94.8622 23.179 95.3023C23.2269 95.3023 23.3388 95.1246 23.115 95.636C23.1201 95.6789 23.1201 95.7223 23.115 95.7652V95.7974V95.7705C23.115 95.7705 23.115 95.7974 23.115 95.7705C23.1603 95.6834 23.2158 95.6021 23.2802 95.5283C23.2802 95.8136 23.0137 96.6586 22.9711 96.9547C22.9285 97.2507 22.9711 96.8093 22.8645 96.9547L22.8059 97.4014C22.6993 97.4014 22.3848 98.1872 22.5607 97.4283L22.3475 98.0957C22.2517 98.3041 22.1733 98.5201 22.113 98.7416C22.0562 98.9487 22.0117 99.1589 21.9798 99.3714C21.8785 99.6835 21.8892 100.206 21.8838 99.9096C21.8146 100.27 21.7453 100.631 21.6866 100.986C21.5854 101.524 21.5267 102.063 21.4468 102.638C21.4042 102.924 21.3562 103.214 21.2976 103.505C21.2389 103.796 21.1963 104.097 21.1164 104.399C21.105 104.848 21.064 105.295 20.9938 105.739L20.8925 105.852C20.8925 106.083 20.8392 106.433 20.8072 106.751C20.7695 106.982 20.7695 107.219 20.8072 107.45C20.6621 107.911 20.599 108.394 20.6207 108.877C20.6207 109.485 20.6847 110.131 20.6687 110.545L20.7806 110.572C20.7806 110.857 20.7806 111.11 20.7806 111.428C20.7806 111.745 20.8499 112.031 20.8978 112.375L20.9938 112.327C21.0546 112.697 21.0813 113.071 21.0737 113.446C21.0737 113.662 21.0737 113.888 21.0737 114.125C21.0737 114.361 21.111 114.593 21.143 114.83C21.0927 114.677 21.071 114.516 21.0791 114.356C21.067 114.944 21.1352 115.531 21.2816 116.1C21.3455 116.39 21.4095 116.676 21.4575 116.95C21.52 117.215 21.5574 117.486 21.5694 117.758C21.6397 117.955 21.6775 118.162 21.6813 118.371C21.6844 118.352 21.6844 118.332 21.6813 118.312C21.6813 118.312 21.6813 118.371 21.6813 118.414C21.6813 118.457 21.6813 118.646 21.6813 118.775C21.6866 118.673 21.6866 118.57 21.6813 118.468C21.7186 118.662 21.7879 118.958 21.8678 119.243L21.7826 119.388V119.453C21.7826 119.749 21.8785 119.674 21.9265 119.507C21.9624 119.633 22.0106 119.756 22.0704 119.873C21.9585 120.137 22.3102 120.605 22.2089 120.949C22.378 121.453 22.5737 121.947 22.7952 122.43C22.8505 122.74 22.9436 123.041 23.0724 123.328L22.9818 123.501L23.3655 124.136C23.4081 124.577 23.4135 124.76 23.1896 124.383C23.4188 124.857 23.4934 125.056 23.5627 125.234C23.6683 125.492 23.8024 125.738 23.9624 125.966H23.8612C23.9944 126.256 24.3088 126.66 24.3142 126.865C24.3195 127.069 24.4314 127.317 24.5007 127.661C24.5903 128.031 24.568 128.419 24.4368 128.775C24.2404 129.187 23.9267 129.53 23.536 129.76L23.3921 129.863L23.2909 129.933L23.1843 130.019C23.1149 130.083 23.0507 130.154 22.9924 130.229C22.9386 130.309 22.894 130.396 22.8592 130.487C22.7494 130.801 22.7382 131.141 22.8272 131.461C22.8272 131.343 22.8858 131.348 22.9125 131.418C22.9281 131.468 22.9405 131.518 22.9498 131.569C22.9498 131.628 22.9924 131.698 23.0137 131.773C23.1043 132.069 23.2802 132.382 23.3868 132.355C23.3868 132.484 23.5574 132.726 23.3069 132.5C23.4774 132.705 23.6373 132.866 23.7812 133.011C23.9251 133.157 24.0583 133.264 24.1756 133.367C24.3917 133.588 24.6441 133.77 24.9218 133.905C24.9591 134.018 24.7086 133.851 24.7565 133.937C24.8759 133.994 24.9828 134.075 25.071 134.174C25.119 134.26 24.9324 134.125 24.8045 134.056C25.5347 134.642 25.7265 134.556 25.8704 134.459C26.084 134.753 26.3789 134.976 26.7179 135.1C26.8085 135.25 26.9843 135.471 26.5207 135.1C26.7658 135.315 28.013 136.44 28.1196 136.348C28.2419 136.484 28.3838 136.6 28.5406 136.693C29.1056 137.167 29.1482 137.231 29.7131 137.667L29.5746 137.522C29.905 137.559 30.0436 137.888 30.5766 138.2C30.6935 138.288 30.8163 138.367 30.9443 138.437L31.2055 138.561C31.3048 138.593 31.4063 138.618 31.5093 138.636C31.5945 138.636 31.6745 138.636 31.829 138.668C32.1023 138.687 32.376 138.641 32.6285 138.534L32.5006 138.474C32.5006 138.351 32.8097 138.221 33.0868 137.936C33.3742 137.61 33.5596 137.206 33.6198 136.774C33.5772 136.86 33.5399 136.951 33.4866 137.037C33.5399 136.596 34.0195 135.929 34.1315 135.52C34.1634 135.428 34.1315 135.665 34.1315 135.794C34.4512 134.718 34.0195 135.627 34.1315 134.809C34.2327 134.674 34.286 135.041 34.3926 134.497C34.4992 134.233 34.4246 132.882 34.6964 132.145C34.6111 132.301 34.5259 132.452 34.5472 132.064C34.6271 131.483 35.0375 130.552 34.9416 129.976C34.9416 129.9 34.9895 129.868 35.0002 129.868C35.013 129.526 34.9898 129.183 34.9309 128.845C34.8835 128.547 34.7686 128.263 34.5951 128.016C34.601 127.889 34.577 127.761 34.5252 127.644C34.4734 127.527 34.3951 127.424 34.2967 127.344C34.158 127.201 33.9909 127.089 33.8063 127.015C33.7074 126.98 33.6058 126.953 33.5026 126.935C33.4014 126.929 33.3 126.929 33.1988 126.935L32.9163 126.967L32.7084 126.999C32.5879 127.011 32.4665 127.011 32.346 126.999C32.2629 126.999 32.1803 126.986 32.1008 126.962C32.0778 126.959 32.0566 126.947 32.0417 126.929C32.0268 126.911 32.0194 126.888 32.0209 126.865C31.6342 126.847 31.2621 126.71 30.955 126.472H31.0029C30.8054 126.292 30.6268 126.091 30.47 125.874C30.3474 125.713 30.2514 125.594 30.1555 125.481C30.0596 125.368 30.1875 125.411 30.2088 125.417C30.0169 124.841 29.937 124.491 29.8144 124.184C29.6685 123.816 29.5012 123.456 29.3134 123.108L29.3827 122.968C29.2228 122.715 28.9776 121.159 28.53 119.986C28.53 119.986 28.5726 120.013 28.6152 120.11C28.0823 118.78 28.0823 116.767 27.6186 116.342C27.5226 116.046 27.4214 115.75 27.3414 115.449C27.5333 116.638 27.1336 115.303 27.1549 115.809C27.0536 115.341 27.0643 114.571 27.1869 115.147V115.239C27.4267 115.411 27.0003 113.748 27.1869 113.758C26.8693 111.486 26.7303 109.191 26.7712 106.896L26.6113 107.149V106.379C26.6592 106.175 26.7392 106.11 26.7339 106.659C26.7828 106.342 26.7497 106.018 26.6379 105.717C26.7392 104.641 26.8191 106.142 26.8298 105.809V105.362V105.464C26.7349 105.114 26.7077 104.748 26.7498 104.388C26.8138 103.968 26.8671 104.178 26.8831 104.016C26.8831 104.016 26.8831 103.963 26.8831 103.763C26.8831 103.44 26.947 103.118 26.9843 102.8L26.8191 103.171C26.8191 102.735 26.9151 102.262 26.7285 102.692C26.8242 102.422 26.8903 102.143 26.9257 101.858C26.995 101.487 27.0643 101.045 27.1282 100.615C27.2153 99.9788 27.3363 99.3482 27.4907 98.7255C27.5395 98.0798 27.663 97.4422 27.8584 96.8255C27.7838 96.9923 27.6186 97.0623 27.7998 96.4487C27.917 96.6048 28.0076 96.3249 28.1409 95.9643C28.247 95.6023 28.4012 95.2565 28.5992 94.9363C28.3114 95.3238 29.1322 93.2139 28.7272 93.8275C28.9244 93.3323 28.8391 93.8275 29.0416 93.4776C29.5149 92.1106 30.0959 90.7841 30.7791 89.5108C30.7791 89.4731 30.5872 89.6831 30.6831 89.3493C30.8537 89.134 31.0509 88.9241 31.2161 88.7088C31.3813 88.4935 31.1468 88.3536 31.5306 87.9176C31.4666 87.9714 31.3653 88.0522 31.4506 87.8638C32.2767 86.5774 33.0495 85.2318 33.9449 83.9293C34.8086 82.6208 35.8112 81.4116 36.9349 80.3231C36.6098 80.5922 36.7856 80.3769 36.9882 80.1239C36.8389 80.2746 36.9136 80.0593 36.8496 80.0539L37.8196 79.1766C37.8569 78.8913 38.7576 78.1486 38.747 77.9494L38.4805 78.267C38.6244 77.9817 38.3632 78.1055 38.0861 78.267C38.3792 77.9494 38.6723 77.6373 38.9761 77.3251C35.3673 78.5309 32.2279 80.8573 30.0063 83.9723ZM26.8671 103.952L26.8298 104.102C26.8298 103.758 26.8298 103.855 26.8671 103.952ZM25.4494 91.5131C25.5254 91.2964 25.6313 91.0917 25.7638 90.9049L25.4121 91.6315C25.4121 91.5938 25.4121 91.5561 25.4494 91.5131ZM22.2516 98.6286C22.1183 98.9946 22.1663 98.8654 22.2516 98.6286V98.6286ZM21.7666 101.858C21.8678 101.008 21.9478 101.514 21.9478 101.363C22.0171 100.97 22.081 100.69 22.1077 100.469C22.1343 100.249 22.1343 100.076 22.1397 99.9311C22.1433 99.517 22.2266 99.1075 22.3848 98.7255C22.6247 98.2464 22.6193 98.7685 22.7313 98.677C22.6087 99.3606 22.4008 99.6889 22.2942 100.152L22.4861 99.6136C22.4609 99.9251 22.3983 100.232 22.2996 100.529C22.3193 100.491 22.3354 100.451 22.3475 100.41C22.113 101.444 21.9105 102.477 21.7559 103.521C21.6913 102.985 21.6913 102.443 21.7559 101.906L21.7666 101.858ZM21.3775 107.052C21.3775 107.246 21.3775 107.434 21.3402 107.628C21.3125 107.464 21.2947 107.299 21.2869 107.133C21.2869 107.133 21.3509 107.106 21.3775 107.052ZM21.0471 111.751C21.0855 111.23 21.1585 110.712 21.2656 110.201C21.2701 110.178 21.2792 110.156 21.2922 110.136C21.2922 110.411 21.2922 110.674 21.2922 110.954H21.1324L21.2976 111.046C21.2976 111.318 21.3082 111.593 21.3296 111.869C21.2715 111.878 21.2123 111.87 21.1587 111.846C21.105 111.822 21.0589 111.784 21.0258 111.735L21.0471 111.751ZM21.4148 115.944L21.4628 115.745L21.3189 114.986C21.4202 115.169 21.58 115.486 21.7453 115.841C21.8021 116.268 21.8661 116.694 21.9371 117.117C21.7135 116.749 21.5497 116.348 21.4521 115.928L21.4148 115.944ZM22.8165 122.451C22.8316 122.467 22.8497 122.48 22.8698 122.489C22.8698 122.489 22.8698 122.591 22.8165 122.451ZM23.4294 124.216C23.4881 124.249 23.5414 124.216 23.6053 124.163C23.6586 124.34 23.7119 124.518 23.7705 124.701L23.4294 124.216ZM26.1156 134.518C26.0463 134.427 26.1476 134.448 26.3021 134.518L26.1476 134.438C26.109 134.396 26.0767 134.349 26.0517 134.298L26.3341 134.529H26.3021L26.3608 134.561L26.7285 134.874L26.8884 135.084L26.1156 134.518Z" fill="#F7B243"/>
<path d="M38.6988 76.8607C38.9059 76.7967 38.805 76.7327 38.8263 76.7061C38.497 76.8447 38.7147 76.8767 38.6988 76.8607Z" fill="#F7B243"/>
<path d="M35.6135 78.4338L35.2134 78.7783L35.5762 78.4984L35.6135 78.4338Z" fill="#F7B243"/>
<path d="M34.4208 79.3004L34.5702 79.0528C33.9833 79.4619 33.2951 80.0808 32.8896 80.3769C33.2204 80.3015 33.8019 79.6126 34.3194 79.3273L34.4208 79.3004Z" fill="#F7B243"/>
<path d="M31.6694 81.0443L31.6054 81.0874L31.36 81.3242C31.4187 81.3242 31.36 81.378 31.36 81.3942C31.4531 81.2689 31.5566 81.1518 31.6694 81.0443Z" fill="#F7B243"/>
<path d="M31.605 81.0866C31.8546 80.8412 31.4032 81.2092 31.605 81.0866V81.0866Z" fill="#F7B243"/>
<path d="M30.7849 81.9108C30.6942 81.9593 30.4114 82.2661 30.4968 82.1315C30.3474 82.3199 30.2994 82.406 30.3154 82.4222C30.3314 82.4383 30.4061 82.3791 30.5181 82.2984L30.7849 81.9108Z" fill="#F7B243"/>
<path d="M30.326 82.7056L30.4588 82.5083C30.3931 82.5566 30.3461 82.6264 30.326 82.7056Z" fill="#F7B243"/>
<path d="M30.598 82.3199C30.598 82.3845 30.6354 82.2823 30.7581 82.0939L30.4593 82.5083C30.518 82.476 30.566 82.5083 30.598 82.3199Z" fill="#F7B243"/>
<path d="M31.1363 81.8786C31.7232 81.2273 31.5578 81.2381 30.9656 81.8786C31.1683 81.7171 31.4137 81.4911 31.1363 81.8786Z" fill="#F7B243"/>
<path d="M33.3485 80.2047C33.2525 80.3177 32.815 80.5868 32.8683 80.6137L33.1564 80.4307L33.3485 80.2047Z" fill="#F7B243"/>
<path d="M28.7378 84.5428C28.7378 84.5859 28.8979 84.4675 28.9512 84.4675L29.1113 84.1661C28.9939 84.2953 28.7911 84.5536 28.7378 84.5428Z" fill="#F7B243"/>
<path d="M28.9512 84.4675L28.7165 84.9143C28.9779 84.5483 28.9993 84.4621 28.9512 84.4675Z" fill="#F7B243"/>
<path d="M30.8543 82.1746L30.5768 82.5891L30.3101 83.0143L30.4114 82.8851C30.5501 82.6429 30.6995 82.4114 30.8543 82.1746Z" fill="#F7B243"/>
<path d="M27.7421 85.8454C27.6831 86.0069 27.6295 86.1791 27.5759 86.3406L27.6563 86.1307C27.6885 86.0338 27.7153 85.9369 27.7421 85.8454Z" fill="#F7B243"/>
<path d="M26.8461 87.2071C26.6997 87.4747 26.5748 87.7537 26.4727 88.0414C26.6181 87.7502 26.7971 87.4773 27.0062 87.2286C27.0595 87.0133 26.7608 87.417 26.8461 87.2286" fill="#F7B243"/>
<path d="M26.3074 88.4666L26.4736 88.0468C26.404 88.1806 26.3483 88.3213 26.3074 88.4666Z" fill="#F7B243"/>
<path d="M27.917 85.8777L28.1091 85.77C28.1428 85.7138 28.1802 85.6598 28.2211 85.6086C28.1784 85.6086 28.0931 85.657 27.917 85.8777Z" fill="#F7B243"/>
<path d="M27.896 86.0715L27.869 86.1202L27.896 86.0715Z" fill="#F7B243"/>
<path d="M28.1154 85.7647L27.901 86.0661C27.9439 86.0069 28.0082 85.91 28.1207 85.7593" fill="#F7B243"/>
<path d="M28.2474 85.5655V85.6092C28.2508 85.6024 28.2525 85.5949 28.2525 85.5873C28.2525 85.5798 28.2508 85.5723 28.2474 85.5655Z" fill="#F7B243"/>
<path d="M29.5162 84.2576C29.5855 84.0476 29.3561 84.2952 29.5162 83.8862C29.3881 84.1607 29.0893 84.6989 29.5162 84.2576Z" fill="#F7B243"/>
<path d="M28.7807 84.925L28.5139 85.4309L28.8287 85.0057C28.8287 85.0057 28.722 85.0595 28.7807 84.925Z" fill="#F7B243"/>
<path d="M28.3647 85.587V85.6623L28.488 85.4309L28.3647 85.587Z" fill="#F7B243"/>
<path d="M26.8568 87.7292C26.7541 87.9637 26.6346 88.1904 26.4993 88.4074C26.6754 88.1598 26.8461 87.8691 27.0008 87.6377C27.0008 87.5839 27.0008 87.4439 26.8568 87.7292Z" fill="#F7B243"/>
<path d="M27.464 86.7711C27.466 86.7873 27.466 86.8037 27.464 86.8199C27.464 86.8199 27.5072 86.7765 27.464 86.7711Z" fill="#F7B243"/>
<path d="M25.1829 90.8835L25.2206 90.851C25.2188 90.8672 25.2188 90.8836 25.2206 90.8998" fill="#F7B243"/>
<path d="M27.043 87.6054C27.144 87.4727 27.2216 87.3234 27.2724 87.1641C27.1923 87.3148 27.1017 87.4708 27.0056 87.6377C27.0056 87.6377 27.0056 87.67 27.043 87.6054Z" fill="#F7B243"/>
<path d="M26.2117 88.8541C26.1174 88.9509 26.0382 89.0616 25.977 89.1825C26.0517 89.0856 26.1317 88.9725 26.2117 88.8541Z" fill="#F7B243"/>
<path d="M27.3848 86.8846V86.8519C27.3304 86.9065 27.3413 86.901 27.3848 86.8846Z" fill="#F7B243"/>
<path d="M27.3846 86.8842C27.3406 86.9783 27.303 87.0754 27.2721 87.1748C27.3357 87.0633 27.3929 86.9483 27.4436 86.8303C27.4253 86.8497 27.4056 86.8677 27.3846 86.8842Z" fill="#F7B243"/>
<path d="M25.7004 89.9683L25.7911 89.7745C25.6551 89.988 25.5016 90.1897 25.3323 90.3774C25.1989 90.7165 25.1935 90.7972 25.2095 90.8349L25.7431 89.8983L25.7004 89.9683Z" fill="#F7B243"/>
<path d="M26.2867 89.3547C26.4147 89.1069 26.508 88.8425 26.5641 88.5689C26.1053 89.4839 26.6548 88.2836 26.26 88.908C26.3418 88.725 26.4218 88.5581 26.5001 88.4074C26.404 88.5635 26.308 88.7142 26.212 88.8541C26.2386 88.8219 26.2546 88.8111 26.212 88.8541C26.216 88.8737 26.216 88.8938 26.212 88.9134C26.0519 89.1663 26.1639 88.9134 26.212 88.8541L25.7745 89.7853C25.8865 89.6023 26.0146 89.3601 26.2333 88.9295C26.2333 89.1233 26.0252 89.6023 26.2707 89.3709" fill="#F7B243"/>
<path d="M29.3771 84.8281C29.3771 84.8281 29.3771 84.8281 29.3399 84.8281C29.3028 84.8281 29.3081 84.9135 29.3771 84.8281Z" fill="#F7B243"/>
<path d="M28.6525 85.404C28.8127 85.3396 28.9621 85.2507 29.0954 85.1403C29.1327 85.0172 29.1924 84.9023 29.2714 84.8012C29.4155 84.6505 29.3088 84.8335 29.3408 84.8389C29.4048 84.7043 29.5755 84.3814 29.2768 84.7312V84.7958C29.0956 85.0158 28.8957 85.2193 28.6792 85.404" fill="#F7B243"/>
<path d="M27.6349 87.0241L27.2348 87.7777L27.5282 87.4493H27.4749C27.7417 87.0456 27.6349 87.1049 27.6349 87.0295" fill="#F7B243"/>
<path d="M25.0554 90.8026L24.9803 91.3193L25.0983 90.9533L25.0554 90.8026Z" fill="#F7B243"/>
<path d="M24.5864 91.8952L24.506 92.1859L24.6454 91.9706L24.5864 91.8952Z" fill="#F7B243"/>
<path d="M21.7082 119.523L21.7779 119.394C21.7244 119.193 21.6903 118.988 21.676 118.78C21.676 119.157 21.6171 119.588 21.7082 119.523Z" fill="#F7B243"/>
<path d="M21.3199 102.881C21.2368 103.134 21.174 103.393 21.1323 103.656C21.2395 103.279 21.3842 102.994 21.3199 102.881Z" fill="#F7B243"/>
<path d="M21.0311 104.565C21.0311 104.512 21.0311 104.458 21.074 104.404C21.0813 104.154 21.1027 103.904 21.1383 103.656C21.0475 103.95 21.0112 104.258 21.0311 104.565Z" fill="#F7B243"/>
<path d="M37.0414 80.1508C37.1396 80.0498 37.2305 79.9419 37.3135 79.8279L37.0414 80.1508Z" fill="#F7B243"/>
<path d="M22.9178 96.1194C22.9815 95.8954 22.9178 96.082 22.9178 96.1194V96.1194Z" fill="#F7B243"/>
<path d="M23.6906 95.2744C23.6788 95.2417 23.6788 95.2058 23.6906 95.1731C23.6906 95.2211 23.6906 95.2638 23.6906 95.2744Z" fill="#F7B243"/>
<path d="M23.0783 95.7974C23.0319 95.8876 22.9925 95.9811 22.9604 96.0773C22.9604 96.0342 23.014 95.9481 23.0783 95.7974Z" fill="#F7B243"/>
<path d="M23.019 95.8233L23.0993 95.6359C23.0993 95.6038 23.0993 95.6359 23.019 95.8233Z" fill="#F7B243"/>
<path d="M22.9183 96.1204L22.8218 96.438C22.8647 96.3088 22.9022 96.1904 22.9505 96.0773C22.9505 96.1204 22.9183 96.1365 22.9183 96.1204Z" fill="#F7B243"/>
<path d="M23.7876 93.8813C23.7608 93.8813 23.7073 93.9405 23.7287 93.8813L23.584 94.3226C23.6365 94.1757 23.7048 94.0349 23.7876 93.9028" fill="#F7B243"/>
<path d="M23.7279 93.8816V93.8329C23.7295 93.8491 23.7295 93.8654 23.7279 93.8816Z" fill="#F7B243"/>
<path d="M24.2449 93.4991C24.3356 93.4991 24.4476 93.1977 24.581 92.864C24.579 92.8837 24.579 92.9035 24.581 92.9232C24.5116 92.7779 24.3836 93.1385 24.2715 93.4991" fill="#F7B243"/>
<path d="M24.7466 92.4872C24.7145 92.428 24.6823 92.6057 24.6073 92.7887C24.6502 92.6864 24.6984 92.5841 24.7466 92.4872Z" fill="#F7B243"/>
<path d="M22.7638 96.89C22.8388 96.7339 22.6888 96.7501 22.7638 96.6693C22.7102 96.454 22.5494 97.7997 22.7638 96.89Z" fill="#F7B243"/>
<path d="M23.5414 95.9374L23.7708 95.3991C23.7708 95.3991 23.7708 95.3292 23.7708 95.243C23.6644 95.458 23.5804 95.6835 23.52 95.9158" fill="#F7B243"/>
<path d="M23.7919 95.2646C23.8539 95.1243 23.9024 94.9783 23.9366 94.8286C23.9044 94.9201 23.8294 95.1193 23.7919 95.2646Z" fill="#F7B243"/>
<path d="M21.9697 102.127C21.9697 101.976 21.9965 101.745 21.9697 101.831L21.8518 102.45C21.8518 102.515 21.9268 102.353 21.9536 102.127" fill="#F7B243"/>
<path d="M38.5444 78.6437L38.8966 78.3369L38.6351 78.5038L38.5444 78.6437Z" fill="#F7B243"/>
<path d="M39.0347 77.874H39.2108L39.3122 77.578C39.2321 77.6815 39.1388 77.7738 39.0347 77.8525" fill="#F7B243"/>
</g>
<defs>
<clipPath id="clip0_0_157">
<rect width="216.945" height="220" fill="white" transform="translate(0.00012207 0.765869)"/>
</clipPath>
</defs>
</svg>
